<svg xmlns="http://www.w3.org/2000/svg" viewBox="1.48 -85.21 531.62 99.76"><path fill="#1c2329" d="M43.6 -39.8Q43.8 -40.2 44.4 -40.35Q45 -40.5 45.2 -40Q45.6 -39.6 46.8 -39.6Q48.4 -39.6 49.2 -39.2Q50 -38.8 50.8 -37.6Q51.6 -36.6 51.85 -35.95Q52.1 -35.3 51.9 -33.4Q51.9 -31.6 52.05 -31.25Q52.2 -30.9 52.8 -30.9Q53.8 -31 54.1 -31.45Q54.4 -31.9 57.6 -32.1Q59.6 -32.2 60.4 -32.1Q61.2 -32 62.1 -31.3Q63.6 -30.2 63.95 -28.15Q64.3 -26.1 62.9 -25.3Q62.2 -25 59.1 -24.8Q56.6 -24.7 54.7 -24.1Q52.8 -23.5 52.6 -22.8Q51.5 -18.7 51.1 -17.8Q50.7 -17 50.5 -14L50.4 -10.9L51.7 -10.3Q65.5 -4.9 80.3 -3.4Q83.2 -3.1 85.95 -2.4Q88.7 -1.7 90 -1.7Q91.5 -1.7 93.55 -0.15Q95.6 1.4 95.6 2.7Q95.6 3.2 95.4 3.4Q95.2 3.6 94.4 3.6Q93.1 3.6 88.4 5.65Q83.7 7.7 81.3 9.5Q80.7 9.9 79.2 9.85Q77.7 9.8 77 9.3Q76.7 8.9 74.1 8.5Q64.6 6.7 61.3 5Q59.3 4 58.9 4Q58.1 4 54.4 2Q50.7 0 47.3 -2.3Q37.9 -8.6 34.3 -12.5Q31.4 -15.8 30.8 -14.7Q30.7 -14.6 30.7 -14.5Q30.1 -12.7 26.5 -7.4Q24.7 -4.7 24.7 -4.3Q24.7 -3.8 23.65 -2.7Q22.6 -1.6 21.3 -0.6Q19.6 0.5 18.6 1.6Q17.2 3.1 11.05 6.75Q4.9 10.4 4.5 10Q4.1 9.6 11.1 2.3Q19.3 -6 22 -11.3Q23.6 -14.2 23.9 -14.5Q24.6 -15.3 25.9 -18.15Q27.2 -21 27.2 -21.5Q27.2 -22.3 25.9 -23.5Q24.1 -25.4 24.9 -25.9Q25.1 -26.2 25.7 -25.9Q27.7 -25.4 28.05 -25.55Q28.4 -25.7 29.1 -27.7Q29.7 -30 30.25 -30.95Q30.8 -31.9 31 -33.4Q31.2 -34.9 31.2 -35.2Q31.3 -35.5 31.65 -35.5Q32 -35.5 32.6 -35.35Q33.2 -35.2 33.9 -34.7Q35.1 -34 36.2 -32.3Q37.1 -31.2 37.2 -30.6Q37.3 -30 37.1 -28.6Q36.9 -26.5 36.3 -26.3Q35.7 -26.1 35.7 -25.45Q35.7 -24.8 34.9 -23.9Q34 -22.8 34.15 -21.9Q34.3 -21 35.7 -19.8Q37.3 -18.1 39.4 -16.6Q41.5 -15.1 41.7 -15.3Q41.9 -15.6 42.45 -21Q43 -26.4 43.3 -30.8Q43.5 -36.1 43.65 -36.25Q43.8 -36.4 43.6 -37.75Q43.4 -39.1 43.6 -39.8ZM41.1 -69Q41.4 -70.7 41.4 -74.95Q41.4 -79.2 42.05 -79.95Q42.7 -80.7 42.8 -80.7Q43.4 -80.7 45.75 -79.35Q48.1 -78 48.3 -77.5Q48.8 -76.8 50.2 -75.3Q51.2 -74.3 51.4 -73.85Q51.6 -73.4 51.4 -72.6Q51.1 -71.4 50.55 -70.3Q50 -69.2 50.2 -68.8Q50.5 -68.4 51.35 -68.5Q52.2 -68.6 52.6 -69.2Q53 -69.7 54.2 -69.35Q55.4 -69 57.7 -69Q60 -69 61.3 -67.9Q62.9 -66.3 63.3 -64.65Q63.7 -63 62.7 -61.9Q61.4 -60.5 58.1 -62Q56.9 -62.6 54.65 -62.75Q52.4 -62.9 51 -62.6Q49.9 -62.2 49.5 -60.9Q49.1 -59.6 49.1 -56.4Q49.1 -52.5 48.75 -50.5Q48.4 -48.5 48.75 -48.3Q49.1 -48.1 52.5 -48.5Q55.9 -48.9 60.6 -49.2Q69.9 -49.6 69.9 -50.8Q69.9 -51.4 70.4 -51.4Q70.8 -51.4 73 -50.8Q75.4 -50.1 77 -50.1Q80.8 -50.1 82 -47.5Q83.2 -44.6 82 -42.7Q80.8 -40.8 78.1 -41.6L73.2 -43.1Q69.9 -44.1 64.3 -44.35Q58.7 -44.6 53.9 -44.1Q42.7 -42.8 38.7 -41.95Q34.7 -41.1 30.4 -39.3Q26.1 -37.4 24.9 -36.9Q23.3 -36.4 20.9 -34.4Q18.5 -32.4 18.2 -31.4Q18 -30.8 16.2 -30.9Q14.4 -31 12.8 -31.8Q11.5 -32.4 10.4 -33.8Q9.3 -35.2 9.3 -36.2Q9.3 -36.7 10.35 -37.75Q11.4 -38.8 12.05 -38.8Q12.7 -38.8 14.35 -39.4Q16 -40 17.2 -40.35Q18.4 -40.7 23.1 -42.6Q31.2 -45.6 37.4 -46.7Q39 -47 39.2 -47.8Q39.5 -49.5 39.8 -52.65Q40.1 -55.8 40.15 -57.9Q40.2 -60 40 -60.4Q39.2 -60.4 37.4 -59.6Q35.6 -58.8 35 -58.3Q33.6 -56.6 30.4 -58.9Q29 -60 28.5 -60.7Q28 -61.4 28 -62.5Q28 -64.4 39.2 -66.8Q40.3 -67.1 40.55 -67.35Q40.8 -67.6 41.1 -69Z"/><path fill="#2261dc" d="M136.1 -48.4Q136.7 -49.2 137.1 -49.1Q137.5 -49 138.5 -47.7Q139.7 -46.2 139.5 -45.4Q139.4 -44.5 139.8 -44.5Q140.3 -44.5 142 -45.2Q149.4 -48.2 153.4 -48.5Q156.1 -48.8 157.25 -48.35Q158.4 -47.9 159.2 -46.5Q160.8 -43.8 159 -41.1L157.9 -39.5L154.6 -39.3Q148 -38.8 145.7 -37Q144.7 -36.3 144.15 -36.35Q143.6 -36.4 141.9 -37.4Q140.1 -38.6 139.7 -38.6Q139.3 -38.6 139.3 -33Q139.3 -27.7 139.8 -27.7Q145.6 -30.2 151 -31Q155.6 -31.5 155.7 -31.65Q155.8 -31.8 156.9 -31.45Q158 -31.1 158.7 -29.5Q160 -26.8 158.6 -24.8Q158 -24 157.45 -23.8Q156.9 -23.6 155.1 -23.6Q147.4 -23.4 145 -21.3Q144.3 -20.7 143.95 -20.65Q143.6 -20.6 142.4 -20.9Q140.9 -21.3 140.9 -21.6Q140.9 -21.9 139.9 -22.6Q139.3 -23 139.2 -23Q139.1 -23 139 -22.5Q139 -21.8 138.5 -15.85Q138 -9.9 138.4 -9.5Q138.8 -9.1 140.2 -9.6Q142.6 -10.7 149.45 -11.85Q156.3 -13 159.9 -13Q162.2 -13 162.75 -12.85Q163.3 -12.7 163.7 -12Q164.3 -10.9 164.6 -9.2Q164.8 -8.2 164.6 -7.65Q164.4 -7.1 163.7 -6.3L162.4 -4.9L156.4 -5.1Q150.4 -5.3 148.45 -4.65Q146.5 -4 144.85 -3.75Q143.2 -3.5 142.8 -3Q141.9 -1.8 140.3 -3Q139.3 -3.7 138.6 -3.45Q137.9 -3.2 136.9 -1.8Q135.6 -0.1 135.4 -0.1Q134.4 -0.1 134 -2.4Q133.6 -4.7 132.5 -8.3Q132.1 -9.8 132.8 -10.8Q133.8 -12.3 134.15 -16.5Q134.5 -20.7 134.5 -30.5Q134.6 -40.1 134.9 -43.8Q135.2 -47.5 136.1 -48.4ZM146.9 -80.7Q147.8 -82.5 148.9 -82.15Q150 -81.8 152.3 -79.2Q155 -76.3 155 -75.6Q155 -74.9 153.85 -73.6Q152.7 -72.3 152.1 -72.3Q151.6 -72.3 150.65 -70.7Q149.7 -69.1 149 -68.05Q148.3 -67 148.05 -66.4Q147.8 -65.8 145.45 -62.95Q143.1 -60.1 143.65 -60.1Q144.2 -60.1 147.4 -61Q150.5 -61.8 155.75 -62.1Q161 -62.4 165.3 -62.1Q168.2 -61.9 169.55 -61.6Q170.9 -61.3 172.7 -60.4Q175.8 -58.9 176.7 -57.85Q177.6 -56.8 177.5 -54.5Q177.4 -52 176.6 -49.7Q175 -45.5 175.9 -30.7Q176.2 -24.1 176.2 -17.3Q176.2 -10.5 175.9 -8.6Q175.5 -6.6 175.4 -5.2Q175.2 0.2 173.5 3.7Q172.8 5.3 170.7 7.75Q168.6 10.2 167.1 11.1Q166.2 11.7 165.55 11.5Q164.9 11.3 164.9 10.6Q164.9 10.1 161.7 6.9L156.5 1.7Q154.6 -0.3 154.6 -0.7Q154.6 -1.2 155.6 -1.25Q156.6 -1.3 157.3 -0.8Q157.9 -0.5 160.95 -1.4Q164 -2.3 164.6 -3Q165.3 -3.6 166.2 -7.1Q167.1 -10.6 167.5 -14.4Q168.1 -18.9 167 -31.9Q166.9 -33.6 166.4 -44.65Q165.9 -55.7 165.7 -55.9Q165.4 -56.2 159.05 -56.05Q152.7 -55.9 151.1 -55.4Q148.1 -54.8 145.4 -53.85Q142.7 -52.9 142.6 -52.5Q142.1 -51.3 139.4 -53.3L138.3 -54.3L133.7 -49.7Q130.2 -46.3 125.7 -43.05Q121.2 -39.8 120 -39.8Q119.3 -39.8 119.7 -40.3Q119.8 -40.6 120.2 -41.2Q121.4 -42.7 122.2 -43.7Q123.4 -44.9 130.2 -53.6Q133.2 -57.6 133.5 -58Q133.8 -58.4 136.1 -61.5Q138.6 -65 142.2 -71.6L144.9 -76.6Q146.3 -79.2 146.9 -80.7Z"/><path fill="#2261dc" d="M244.2 -72.4Q246.2 -73.8 249.3 -72.7Q255.7 -70.7 257.7 -68.9Q259.2 -67.5 259.9 -67.3Q260.5 -67 260.35 -64.6Q260.2 -62.2 259.4 -61.3Q258.8 -60.2 256.8 -59.25Q254.8 -58.3 252.65 -55.5Q250.5 -52.7 249.9 -52.7Q249.3 -52.7 249.2 -51.95Q249.1 -51.2 249.35 -50.35Q249.6 -49.5 250.2 -49.2Q250.9 -48.6 250.35 -45.65Q249.8 -42.7 248.8 -42.1Q248.1 -41.7 248.1 -41Q248.1 -40.1 246.3 -39.6Q244.5 -39.1 239.2 -38.6Q233.2 -38 230.85 -37.45Q228.5 -36.9 228.1 -35.95Q227.7 -35 226.3 -35.05Q224.9 -35.1 223.3 -36.2Q221.7 -37.2 221.25 -36.75Q220.8 -36.3 220.8 -34.2Q220.7 -32.3 220.2 -26.7Q219.7 -21.1 220.4 -17.2Q220.9 -14.1 221.75 -12.45Q222.6 -10.8 224.4 -9Q226.1 -7.3 228.9 -6.7Q233.6 -5.7 247.75 -5.2Q261.9 -4.7 265.5 -5.6Q269.6 -6.4 273.75 -9.15Q277.9 -11.9 277.9 -13.7Q277.9 -14.5 278.85 -16.7Q279.8 -18.9 280.35 -21.95Q280.9 -25 281.3 -25Q281.5 -25 281.6 -24.4Q281.7 -23.8 281.9 -21Q282 -18.5 282.5 -15.75Q283 -13 283.15 -9.9Q283.3 -6.8 283.4 -6.2Q283.7 -5.8 283.15 -3.5Q282.6 -1.2 281.85 0.3Q281.1 1.8 279.1 3.8Q277.1 5.8 275.3 6.7Q274.1 7.3 272.35 7.35Q270.6 7.4 264 7.4Q255.4 7.4 245.15 7Q234.9 6.6 233.2 6.1Q231.5 5.7 229 5.2Q225.6 4.5 223.8 3.15Q222 1.8 219.9 -1.5Q218.6 -3.9 217.4 -5.3Q215.1 -8.4 214.7 -16.8Q214.5 -22.7 215.1 -28.15Q215.7 -33.6 215.9 -37.3Q216.2 -40.6 216.65 -41.85Q217.1 -43.1 218 -42.9Q218.8 -42.7 221.2 -43.55Q223.6 -44.4 226.45 -45.15Q229.3 -45.9 229.95 -46.5Q230.6 -47.1 231.8 -47.5Q232.8 -47.7 234.4 -49.05Q236 -50.4 236.9 -51.7Q238 -53.4 239.4 -57.5Q240.8 -61.6 241.2 -64L241.4 -65.3L238.6 -65.1Q235.8 -64.9 231.65 -64.05Q227.5 -63.2 226.7 -62.8Q224.9 -61.7 222 -64.1Q221.1 -64.7 221 -65.1Q220.9 -65.5 221.15 -66.15Q221.4 -66.8 222.1 -67.2Q222.8 -67.6 225.3 -68.1Q228.9 -69.2 229.65 -69.5Q230.4 -69.8 233.9 -70.5Q237.4 -71.2 240.3 -71.4Q243.2 -71.5 244.2 -72.4Z"/><path fill="#2261dc" d="M350.6 -36.3Q352.4 -37.8 353.45 -38Q354.5 -38.2 356.4 -37.3Q358.2 -36.5 358.8 -36.5Q359.4 -36.5 360.95 -35.65Q362.5 -34.8 363.6 -33.8Q364.7 -32.7 364.7 -30.9Q364.7 -29.7 364.4 -29.1Q364.1 -28.5 363 -27.5Q361.8 -26.3 361.3 -26.05Q360.8 -25.8 358.9 -26.1Q357.2 -26.2 356.4 -26.55Q355.6 -26.9 353.5 -28.9Q348.4 -33.8 348.4 -34.1Q348.4 -34.4 350.6 -36.3ZM324.9 -38.6Q326.2 -38.6 327.85 -39.15Q329.5 -39.7 329.85 -39.7Q330.2 -39.7 331.1 -39.2Q332.1 -38.4 332.5 -37.05Q332.9 -35.7 332.3 -34.4Q331.7 -32.9 330.8 -32.4Q329.9 -31.9 327.5 -31.6L322.2 -31Q320.5 -30.8 319.95 -30.95Q319.4 -31.1 318.5 -32.2Q316.9 -33.6 317.1 -34.2Q317.2 -34.9 320.6 -36.7Q324 -38.5 324.9 -38.6ZM361.7 -78.6Q362.1 -80 362.45 -80.25Q362.8 -80.5 363.7 -80.5Q365 -80.5 366.5 -79.6Q368 -79 369.8 -77.05Q371.6 -75.1 371.6 -74.5Q371.6 -73.8 370.4 -72.35Q369.2 -70.9 369.2 -70.3Q369.2 -69.7 367.95 -68.5Q366.7 -67.3 366.7 -66.9Q366.7 -66.5 365.6 -64.75Q364.5 -63 363.8 -62Q362.7 -60.6 361.7 -59.15Q360.7 -57.7 360.15 -56.75Q359.6 -55.8 359.8 -55.8Q360.1 -55.5 362.2 -56.3Q364.2 -57 367.4 -57.25Q370.6 -57.5 372.6 -57.2Q374.7 -56.9 375.7 -56.8Q379.6 -56.3 379.9 -55.6Q380.2 -55.2 380.95 -55.2Q381.7 -55.2 382.8 -54L384.8 -51.9Q385.4 -51.1 385.35 -48.85Q385.3 -46.6 384.6 -45.5Q383.2 -43.6 382.8 -32.4Q382.5 -26.5 381.5 -20Q381.3 -18.4 381.35 -17.55Q381.4 -16.7 380.9 -15.2Q380.1 -12.2 379.7 -9.2Q379.3 -4.9 376.4 -1.2Q374.9 0.9 374.9 1.3Q374.9 1.7 372.2 4.35Q369.5 7 369.1 7Q368.5 7 367.3 7.85Q366.1 8.7 364.4 8.9Q362.7 9.1 362.7 9.5Q362.7 9.9 361.5 9.9Q360.3 9.9 358.65 8.35Q357 6.8 357 6.5Q357 6.2 354 3Q350.9 -0.5 349.8 -2.6Q349.4 -3.5 350.2 -3.3Q351 -3.1 352.7 -2.3Q354.9 -1.3 356.2 -1.15Q357.5 -1 359.6 -1.5Q360.8 -1.9 361.5 -2.5Q362.2 -3.1 363.8 -5.2Q366.1 -8.2 366.7 -9.2Q368 -11.2 369.4 -17.9Q370.8 -24.6 371.6 -32Q372 -36.3 372.6 -40.9Q373.2 -45.5 373.2 -48.7V-51.9L372 -52.1Q370 -52.6 366.45 -51.85Q362.9 -51.1 361.7 -50.2Q360.6 -49.3 359.7 -49.4Q358.8 -49.5 357.7 -50.8Q356 -52.7 355.4 -51.5Q355.3 -50.8 351.1 -47.25Q346.9 -43.7 346.25 -42.85Q345.6 -42 345.4 -37.6Q345.2 -33.1 344.55 -26.5Q343.9 -19.9 343.5 -18.6Q343.2 -17.2 342.3 -15.2Q341.4 -13.2 341.4 -12.9Q341.4 -12.2 339.85 -9.8Q338.3 -7.4 337 -6.2Q335.5 -4.4 334.75 -4.25Q334 -4.1 332.9 -5Q332 -5.9 330.65 -8.3Q329.3 -10.7 329 -12Q328.6 -14 326.75 -14.4Q324.9 -14.8 321.4 -13.8Q320 -13.4 319.5 -13.15Q319 -12.9 318.9 -12.1Q318.7 -10.8 317.7 -9.75Q316.7 -8.7 315.9 -8.9Q315.4 -9.1 314.8 -10.15Q314.2 -11.2 314.2 -12.1Q314.2 -12.8 313.7 -13.2Q313.4 -13.5 313.3 -16.15Q313.2 -18.8 313.5 -19.8Q313.8 -20.6 313.15 -27.9Q312.5 -35.2 312 -37.5Q311.1 -41.4 312.6 -42.3Q313.3 -42.9 314.5 -41.6Q315.4 -40.8 315.65 -39.75Q315.9 -38.7 316.4 -34.6Q317 -29 317.5 -24.7Q317.8 -20.9 318.25 -20.2Q318.7 -19.5 320.2 -20Q321.8 -20.6 325 -21.3Q328.2 -22 328.9 -22.3Q329.6 -22.6 330.8 -22Q332 -21.4 332.2 -20.6Q332.8 -18.6 333.9 -21.4Q334.5 -23.3 335 -26.2Q335.3 -28.6 335.6 -30.1Q335.8 -31.3 335.7 -31.5Q335.6 -31.7 334.7 -31.6L333.6 -31.3L334.6 -32.4Q335.6 -33.4 335.9 -35.2Q336.2 -37 336.4 -42.4Q336.6 -46.3 336.5 -47.3Q336.4 -48.3 335.9 -48.5Q335.3 -48.7 330.5 -48.75Q325.7 -48.8 322.3 -47.7Q318.9 -46.6 318.05 -45.85Q317.2 -45.1 315.9 -45.3Q314.6 -45.5 312.45 -44.05Q310.3 -42.6 308.8 -41.2Q306.6 -39.2 305.7 -39.4Q305.5 -39.4 305.8 -39.8L313.6 -50.2Q323.4 -63.1 324.6 -65.9Q324.8 -66.4 326.5 -69.2Q328.1 -71.9 329.1 -71.9Q330.1 -71.9 332.4 -69.5Q334.5 -67.1 334.5 -66.4Q334.5 -66 332.4 -63.75Q330.3 -61.5 327.9 -59.5Q326.9 -58.6 324.1 -55.5Q321.3 -52.4 320.9 -51.7Q320.7 -51.1 321.1 -51.2Q321.3 -51.2 322 -51.4Q331.8 -53.4 339.4 -51.8Q343.9 -50.8 346 -48.8Q347.1 -47.8 347.4 -48.4Q348.5 -50 349.1 -51.4Q349.6 -52.2 350.4 -53.4Q352.8 -57.2 359.2 -72.2Q360.1 -74.4 361.7 -78.6Z"/><path fill="#1c2329" d="M451.2 -24.5Q452 -24.6 456.1 -24.5Q460.2 -24.4 463 -24.1Q466.4 -23.7 471.6 -21.8Q473.7 -21.1 473.3 -17.9Q473 -16.3 472.3 -14.95Q471.6 -13.6 470.8 -13.6Q470.4 -13.6 469.05 -11.95Q467.7 -10.3 466.8 -9.3Q465.9 -8.3 465.9 -7.95Q465.9 -7.6 464.5 -7.05Q463.1 -6.5 463.1 -6.2Q463.1 -6 464.75 -5.3Q466.4 -4.6 467.7 -4.3Q468.8 -4.1 469.55 -3.45Q470.3 -2.8 470.3 -2.1Q470.3 -1.4 469.6 0.5Q469 2.7 468 3.05Q467 3.4 464 2.7Q461.3 2 457.05 1.65Q452.8 1.3 451.5 1.6Q450.9 1.7 450.65 2.15Q450.4 2.6 450.3 3.9Q449.9 5.8 449.45 6.45Q449 7.1 448 6.8Q447 6.5 445.75 5.2Q444.5 3.9 444.5 3.1Q444.5 2.4 444.3 2.15Q444.1 1.9 443.9 0.45Q443.7 -1 443.2 -3Q441.7 -8.3 441.5 -12.8Q441.3 -15.8 440.9 -16.1Q440.3 -17 441.1 -18.3Q441.4 -18.7 441.2 -19.1Q440.5 -20.2 443.8 -21.8Q448 -23.9 451.2 -24.5ZM460.9 -18.8Q460.3 -19.4 455.7 -19.5Q449.4 -19.5 446.5 -17.5Q445.8 -17 445.75 -16.85Q445.7 -16.7 446.2 -16.3Q446.9 -15.7 446.9 -14.65Q446.9 -13.6 447.7 -9.95Q448.5 -6.3 448.8 -5.3Q448.9 -4.5 449.7 -4.3Q450.5 -4.1 452.3 -4.5Q453.8 -4.8 454.4 -5.25Q455 -5.7 456 -7.1Q458.2 -9.8 459.85 -14Q461.5 -18.2 460.9 -18.8ZM429.5 -71Q429.6 -71.4 430.35 -71.4Q431.1 -71.4 432.35 -71.05Q433.6 -70.7 434.6 -70.2Q436.8 -69.2 438.7 -68.5Q440.1 -68 440.3 -67.7Q440.5 -67.4 440.5 -66.1Q440.5 -63.9 438.3 -59.8Q435.2 -54.3 433.7 -53.3Q432.7 -52.5 432.5 -52.1Q432.3 -51.7 432.4 -50.5Q432.5 -48.5 431.6 -45.55Q430.7 -42.6 429.8 -42.6Q429.5 -42.6 429.5 -41.9Q429.5 -41 426.9 -41Q425.6 -41 422.9 -40.35Q420.2 -39.7 418.4 -39.6H416.6L416.4 -37.9Q416.3 -36.8 416.15 -36.5Q416 -36.2 415.4 -36.2Q414.5 -36.2 413.3 -37.6Q412.1 -39 412.1 -39.9Q412.1 -40.8 411.45 -42.55Q410.8 -44.3 410.5 -46.9Q409.5 -53.9 408.4 -58Q407.4 -61.8 407.6 -65.7Q407.7 -66.5 410.05 -67.8Q412.4 -69.1 414.9 -69.8Q417.7 -70.4 423.6 -70.6Q429.5 -70.8 429.5 -71ZM425.8 -60.1Q426.4 -61.7 426.95 -63.7Q427.5 -65.7 427.3 -65.95Q427.1 -66.2 424.35 -66.25Q421.6 -66.3 420 -66.1Q416.3 -65.6 413.9 -64Q411.5 -62.4 411.8 -60.8Q412.3 -59.1 413.3 -52.8Q414 -49.5 414.35 -49.15Q414.7 -48.8 417.3 -49.8Q419.9 -50.8 420.7 -50.8Q421.6 -50.8 422.75 -52.05Q423.9 -53.3 423.9 -54.1Q423.9 -55.8 425.8 -60.1ZM450.5 -74.2Q450.4 -74.8 450.65 -76.15Q450.9 -77.5 451.5 -77.5Q452.6 -77.5 454.9 -75.8Q457.2 -74.1 457.2 -73.3Q457.2 -73 457.9 -72.2Q459.5 -70.4 456.6 -64.6L456 -63.4L458.7 -63.7Q464.8 -64 467.2 -61.4Q468.1 -60.3 468.2 -59.55Q468.3 -58.8 467.8 -57.7Q467.2 -56.6 466.55 -54.85Q465.9 -53.1 465.5 -52.5Q465.1 -51.9 464.2 -50Q463.3 -48.1 462.2 -46.9Q460.9 -44.9 461.1 -44.2Q461.3 -43.5 463.6 -41.7Q468.1 -38.4 470.75 -36.9Q473.4 -35.4 478.1 -33.4Q482.6 -31.6 483.35 -30.95Q484.1 -30.3 486.75 -29.4Q489.4 -28.5 490.1 -27.4Q490.5 -26.6 490.45 -26.35Q490.4 -26.1 490 -25.6Q489.2 -24.7 487.4 -24.5Q484.4 -24.1 481.2 -21.9Q480.1 -21.2 479.55 -21.1Q479 -21 478 -21.4Q476.5 -21.8 473.4 -23.3Q470.3 -24.8 470.05 -25.15Q469.8 -25.5 468.2 -26.3Q466.6 -27.2 465.2 -28.35Q463.8 -29.5 460.2 -33.3Q456.3 -37.2 455.65 -37.7Q455 -38.2 451.85 -35.2Q448.7 -32.2 446.9 -30.95Q445.1 -29.7 444.9 -29.4Q444.7 -29.1 442.55 -28.15Q440.4 -27.2 439.3 -26.5Q434.7 -23.7 430.1 -23.3Q428.1 -23.1 427.55 -22.9Q427 -22.7 426.7 -21.9Q426.3 -21.1 425.85 -16.75Q425.4 -12.4 425.6 -12.1Q426 -11.9 427.85 -12.6Q429.7 -13.3 432.7 -13.7Q435.7 -14.1 436.55 -13.5Q437.4 -12.9 437.4 -10.5Q437.4 -8.6 436.7 -7.95Q436 -7.3 433.7 -7.3Q431.3 -7.3 426.4 -6Q421.5 -4.7 419.7 -3.6Q418.5 -2.9 415.5 -1.9Q411.3 -0.6 408.3 1.1Q405.3 2.8 405.3 3.8Q405.3 4.2 404.4 4.8Q403.6 5.3 403.2 5.2Q402.8 5.1 401.3 4.5Q399.1 3.4 398.5 2.7Q397.9 2 397.65 0.95Q397.4 -0.1 397.75 -0.3Q398.1 -0.5 397.9 -0.8Q397.8 -1.1 398.9 -1.7Q400 -2.3 401.7 -3.05Q403.4 -3.8 405 -4.5Q405.2 -4.6 405.5 -4.7Q406.9 -5.1 407.15 -5.9Q407.4 -6.7 407.4 -10.8Q407.4 -11.7 407.4 -12.2Q407.4 -16.6 406.8 -21.2Q406 -30.5 406.5 -31Q406.8 -31.3 408.4 -30.6Q410.8 -29.4 411.15 -28.45Q411.5 -27.5 411.7 -22.8Q412 -17.2 412.45 -16.6Q412.9 -16 412.7 -13.6Q412.4 -11.5 412.75 -9.75Q413.1 -8 413.9 -8Q414.7 -8 416.75 -8.75Q418.8 -9.5 418.8 -9.8Q418.8 -10.3 419 -16.2Q419.2 -22.1 419.3 -29.6Q419.3 -35.5 419.6 -36.65Q419.9 -37.8 421.4 -37.8Q422.3 -37.8 424.1 -36.9Q425.9 -36 426 -35.5Q426.2 -33.6 426.5 -31.4L426.7 -30L429.2 -30.5Q431.6 -30.9 432.3 -30.8Q432.9 -30.6 433.55 -29.35Q434.2 -28.1 434.2 -27.1Q434.2 -26.3 434.35 -26.15Q434.5 -26 435 -26.3Q436.1 -26.8 440.5 -31.35Q444.9 -35.9 446.2 -38Q448.1 -40.8 449.3 -42.3L450.5 -43.9L449.2 -45.5Q447.9 -47.1 447.2 -48.2Q446.1 -49.9 445 -49.35Q443.9 -48.8 439.1 -44.2Q432.7 -38 432.4 -38.3Q432.3 -38.5 432.65 -40.6Q433 -42.7 434.1 -43.9Q436 -45.9 438.45 -49.35Q440.9 -52.8 442.2 -55.2Q444.1 -58.6 445.1 -60.6Q446.8 -63.4 449.4 -69.5Q450.8 -72.9 450.5 -74.2ZM454.9 -58.9Q454.9 -60.7 454 -59.7Q453.8 -59.4 453.5 -58.9Q452.9 -57.8 451.1 -55.8Q449.3 -53.8 449.3 -53.5Q449.3 -53.1 451.55 -51Q453.8 -48.9 454.1 -49.1Q454.6 -49.4 455.7 -52.45Q456.8 -55.5 456.8 -56.7Q456.8 -57.2 455.85 -57.6Q454.9 -58 454.9 -58.9Z"/><path fill="#1c2329" d="M520 -27.1Q524.1 -27.1 527.1 -23.85Q530.1 -20.6 530.1 -16Q530.1 -12.1 527.4 -7.3Q526 -4.8 523.15 -3.15Q520.3 -1.5 516.6 -1.5Q510.7 -1.5 507.75 -5.9Q504.8 -10.3 504.8 -14.5Q504.8 -22.2 514.2 -25.9V-26Q514.2 -27.1 520 -27.1ZM516.3 -20.6Q514.6 -20.6 512.95 -18.9Q511.3 -17.2 511.3 -14.7Q511.3 -9.2 516.4 -9.2Q519.5 -9.2 521.3 -11.1Q523.1 -13 523.1 -15.5Q523.1 -17 522.5 -17.6Q521.9 -18.2 521.55 -18.5Q521.2 -18.8 520.4 -19.15Q519.6 -19.5 519.2 -19.6Q517.4 -20.3 516.3 -20.6Z"/></svg>
