<svg xmlns="http://www.w3.org/2000/svg" viewBox="2.0428571428571436 -84.43333333333334 1160.5571428571427 98.18333333333334"><path fill="#202e35" d="M15.4 -46.5Q17.2 -47.300000000000004 19.65 -47.300000000000004Q22.1 -47.300000000000004 22.900000000000002 -46.6Q23.5 -46.2 23.65 -45.7Q23.8 -45.2 23.700000000000003 -43.1Q23.400000000000002 -40.300000000000004 23.0 -38.5Q22.5 -36.2 22.65 -33.300000000000004Q22.8 -30.400000000000002 23.400000000000002 -28.400000000000002Q24.3 -26.0 24.55 -25.6Q24.8 -25.200000000000003 25.450000000000003 -23.400000000000002Q26.1 -21.6 29.5 -18.400000000000002Q31.700000000000003 -16.1 32.2 -15.3Q32.7 -14.5 32.800000000000004 -13.200000000000001L33.1 -11.3L35.9 -10.5Q38.7 -9.9 43.5 -8.3Q51.900000000000006 -5.7 57.85000000000001 -4.7Q63.800000000000004 -3.7 72.9 -3.6Q81.7 -3.5 86.1 -3.1500000000000004Q90.5 -2.8000000000000003 92.0 -3.3000000000000003Q93.2 -3.5 94.1 -3.4000000000000004Q95.0 -3.3000000000000003 95.0 -2.8000000000000003Q95.0 -2.4000000000000004 94.2 -1.6Q93.4 -0.8 92.80000000000001 -0.6000000000000001Q91.9 -0.4 90.75 0.75Q89.60000000000001 1.9000000000000001 88.5 2.4000000000000004Q87.2 3.2 84.7 5.4Q82.2 7.6000000000000005 82.10000000000001 8.4Q81.80000000000001 9.3 81.80000000000001 9.3Q81.4 9.5 75.7 9.5Q70.0 9.5 69.10000000000001 9.3Q67.3 8.8 64.0 8.4Q54.5 7.300000000000001 44.7 2.9000000000000004Q40.7 1.1 33.1 -1.8Q26.5 -4.3 22.4 -3.8Q18.3 -3.3000000000000003 15.4 0.8Q14.100000000000001 2.4000000000000004 13.100000000000001 2.4000000000000004Q11.9 2.4000000000000004 11.4 1.85Q10.9 1.3 9.4 -1.5Q9.1 -2.1 9.7 -3.25Q10.3 -4.4 10.0 -5.1000000000000005Q9.8 -5.800000000000001 12.15 -7.6000000000000005Q14.5 -9.4 16.900000000000002 -10.4Q18.400000000000002 -11.0 20.450000000000003 -12.600000000000001Q22.5 -14.200000000000001 22.5 -14.8Q22.5 -15.4 20.900000000000002 -18.7Q17.400000000000002 -25.400000000000002 17.3 -35.0Q17.3 -36.800000000000004 16.9 -36.95Q16.5 -37.1 14.600000000000001 -36.0Q12.8 -35.0 11.9 -35.0Q11.0 -35.0 10.3 -34.300000000000004Q9.3 -33.300000000000004 7.700000000000001 -34.35Q6.1000000000000005 -35.4 5.300000000000001 -37.7Q5.0 -38.5 5.050000000000001 -38.95Q5.1000000000000005 -39.400000000000006 5.5 -40.2Q6.4 -41.5 9.5 -43.5Q12.600000000000001 -45.5 15.4 -46.5ZM17.5 -73.9Q18.400000000000002 -74.5 19.75 -74.4Q21.1 -74.3 22.0 -73.60000000000001Q22.3 -73.3 25.0 -72.4Q27.700000000000003 -71.5 27.900000000000002 -70.8Q29.0 -68.3 28.200000000000003 -65.0Q27.700000000000003 -62.2 27.700000000000003 -61.5Q27.700000000000003 -60.800000000000004 26.450000000000003 -59.60000000000001Q25.200000000000003 -58.400000000000006 24.0 -58.7Q22.900000000000002 -58.900000000000006 21.950000000000003 -59.550000000000004Q21.0 -60.2 21.0 -60.7Q21.0 -61.2 20.05 -62.1Q19.1 -63.0 19.1 -63.300000000000004Q19.1 -63.900000000000006 18.15 -65.65Q17.2 -67.4 16.8 -67.7Q16.400000000000002 -68.0 16.1 -69.45Q15.8 -70.9 16.0 -72.0Q16.400000000000002 -73.2 17.5 -73.9ZM54.0 -79.9Q58.6 -80.10000000000001 59.400000000000006 -80.10000000000001Q68.5 -79.0 74.8 -75.60000000000001Q76.10000000000001 -74.8 76.70000000000002 -74.25Q77.30000000000001 -73.7 77.60000000000001 -72.4Q78.30000000000001 -71.0 78.35000000000001 -70.30000000000001Q78.4 -69.60000000000001 78.10000000000001 -68.2Q77.5 -66.10000000000001 77.30000000000001 -65.60000000000001Q77.10000000000001 -65.10000000000001 76.7 -63.1Q76.10000000000001 -59.300000000000004 74.5 -55.550000000000004Q72.9 -51.800000000000004 71.9 -51.2Q70.9 -51.0 69.1 -49.150000000000006Q67.3 -47.300000000000004 66.6 -47.300000000000004Q65.9 -47.300000000000004 64.55000000000001 -48.75Q63.2 -50.2 62.0 -49.900000000000006Q61.1 -49.6 59.55 -48.35Q58.0 -47.1 58.0 -46.400000000000006Q58.0 -45.800000000000004 58.95 -45.650000000000006Q59.900000000000006 -45.5 64.2 -45.2Q67.4 -44.7 75.60000000000001 -42.6Q78.5 -41.800000000000004 81.5 -40.25Q84.5 -38.7 85.0 -37.800000000000004Q85.80000000000001 -36.1 85.4 -31.200000000000003Q85.0 -26.3 83.60000000000001 -21.400000000000002Q82.60000000000001 -17.6 80.05000000000001 -14.150000000000002Q77.5 -10.700000000000001 76.0 -10.700000000000001Q75.3 -10.700000000000001 73.95 -10.05Q72.60000000000001 -9.4 72.4 -9.0Q72.3 -8.6 71.7 -8.7Q71.10000000000001 -8.8 70.30000000000001 -9.350000000000001Q69.5 -9.9 68.5 -10.9Q66.3 -13.0 65.25 -13.100000000000001Q64.2 -13.200000000000001 64.2 -13.900000000000002Q64.2 -14.600000000000001 63.550000000000004 -15.3Q62.900000000000006 -16.0 62.5 -16.900000000000002L62.300000000000004 -17.900000000000002L64.8 -17.7Q67.7 -17.400000000000002 68.75 -17.950000000000003Q69.8 -18.5 70.9 -20.6Q72.5 -24.1 72.9 -30.5Q73.2 -34.0 72.9 -35.25Q72.60000000000001 -36.5 71.5 -37.2Q68.2 -38.800000000000004 62.5 -39.800000000000004Q58.800000000000004 -40.5 57.95 -40.1Q57.1 -39.7 56.2 -36.800000000000004Q55.2 -34.0 54.800000000000004 -33.6Q53.900000000000006 -32.6 55.6 -32.6Q56.2 -32.5 57.300000000000004 -32.6L60.2 -32.7L60.400000000000006 -35.1Q60.6 -37.300000000000004 60.800000000000004 -37.5Q61.400000000000006 -37.9 64.5 -36.0Q67.60000000000001 -34.1 67.60000000000001 -33.300000000000004Q67.60000000000001 -32.800000000000004 68.80000000000001 -31.300000000000004Q70.0 -29.8 70.0 -27.900000000000002Q70.10000000000001 -26.8 69.85000000000001 -26.25Q69.60000000000001 -25.700000000000003 68.7 -24.700000000000003Q67.10000000000001 -23.400000000000002 66.4 -23.400000000000002Q64.8 -23.400000000000002 63.2 -24.550000000000004Q61.6 -25.700000000000003 61.6 -26.900000000000002Q61.6 -27.8 61.0 -27.8Q60.400000000000006 -27.8 60.400000000000006 -27.1Q60.400000000000006 -26.200000000000003 59.5 -25.650000000000002Q58.6 -25.1 54.6 -23.900000000000002Q51.5 -22.8 50.3 -22.4Q49.1 -22.0 48.1 -22.0Q47.1 -22.0 46.75 -22.4Q46.400000000000006 -22.8 45.800000000000004 -24.0Q44.900000000000006 -25.8 45.800000000000004 -29.0Q46.400000000000006 -31.400000000000002 46.75 -32.0Q47.1 -32.6 47.800000000000004 -32.9Q48.6 -33.300000000000004 49.1 -34.300000000000004Q51.1 -38.5 50.8 -39.5Q50.5 -40.5 47.6 -39.800000000000004L44.400000000000006 -38.900000000000006Q42.7 -38.400000000000006 41.650000000000006 -37.650000000000006Q40.6 -36.9 40.75 -36.2Q40.900000000000006 -35.5 41.300000000000004 -33.55Q41.7 -31.6 42.5 -29.3Q45.5 -19.6 44.0 -15.8Q43.5 -14.200000000000001 42.7 -14.200000000000001Q41.900000000000006 -14.200000000000001 41.0 -14.850000000000001Q40.1 -15.5 40.1 -16.1Q40.1 -16.7 38.95 -17.950000000000003Q37.800000000000004 -19.200000000000003 37.800000000000004 -20.3Q37.800000000000004 -21.3 36.550000000000004 -25.05Q35.300000000000004 -28.8 34.7 -29.8Q34.4 -30.400000000000002 34.05 -32.2Q33.7 -34.0 33.300000000000004 -36.5Q33.0 -38.1 33.05 -38.650000000000006Q33.1 -39.2 33.5 -39.800000000000004Q34.300000000000004 -40.5 35.2 -40.5Q36.1 -40.5 36.3 -40.900000000000006Q36.5 -41.300000000000004 37.55 -41.300000000000004Q38.6 -41.300000000000004 39.300000000000004 -41.7Q43.1 -43.7 48.5 -44.6Q51.5 -45.0 51.800000000000004 -45.7Q52.2 -47.7 50.1 -47.7Q48.6 -47.7 48.2 -46.800000000000004Q47.7 -46.1 46.6 -46.1Q45.5 -46.1 44.7 -46.800000000000004Q43.300000000000004 -48.0 42.85000000000001 -49.0Q42.400000000000006 -50.0 42.2 -51.900000000000006Q42.0 -54.7 40.2 -60.0Q38.400000000000006 -65.3 38.400000000000006 -66.05Q38.400000000000006 -66.8 37.85000000000001 -67.25Q37.300000000000004 -67.7 37.300000000000004 -68.65Q37.300000000000004 -69.60000000000001 36.800000000000004 -69.60000000000001Q35.6 -69.60000000000001 35.6 -72.3Q35.6 -73.3 35.900000000000006 -73.75Q36.2 -74.2 37.2 -74.7Q43.800000000000004 -79.10000000000001 54.0 -79.9ZM62.6 -73.7Q58.7 -74.7 58.0 -74.4Q57.5 -74.10000000000001 58.05 -73.35000000000001Q58.6 -72.60000000000001 59.2 -70.8Q59.6 -69.5 60.2 -69.1Q60.800000000000004 -68.7 63.900000000000006 -68.10000000000001Q64.60000000000001 -68.0 64.80000000000001 -67.45Q65.0 -66.9 64.9 -65.5Q64.8 -64.5 64.4 -64.05Q64.0 -63.6 62.300000000000004 -62.6Q61.0 -61.6 60.45 -61.150000000000006Q59.900000000000006 -60.7 59.900000000000006 -60.1Q59.900000000000006 -58.900000000000006 59.7 -57.800000000000004Q59.6 -56.900000000000006 59.75 -56.650000000000006Q59.900000000000006 -56.400000000000006 60.800000000000004 -56.1Q62.2 -55.7 62.300000000000004 -56.050000000000004Q62.400000000000006 -56.400000000000006 63.0 -56.900000000000006Q63.900000000000006 -57.800000000000004 64.9 -61.75Q65.9 -65.7 66.10000000000001 -68.8Q66.2 -71.4 65.65 -72.15Q65.10000000000001 -72.9 62.6 -73.7ZM54.6 -73.5Q54.800000000000004 -74.2 54.45 -74.30000000000001Q54.1 -74.4 52.2 -74.3Q49.400000000000006 -74.3 47.5 -73.8L44.6 -73.3Q43.800000000000004 -73.2 43.150000000000006 -72.15Q42.5 -71.10000000000001 42.900000000000006 -70.60000000000001Q43.300000000000004 -70.10000000000001 43.300000000000004 -69.3Q43.300000000000004 -68.60000000000001 43.75 -67.5Q44.2 -66.4 44.400000000000006 -66.4Q44.7 -66.4 47.650000000000006 -67.05000000000001Q50.6 -67.7 52.2 -67.9L53.800000000000004 -68.2L54.0 -70.4Q54.300000000000004 -72.5 54.6 -73.5ZM52.7 -58.800000000000004 53.0 -61.6H51.1Q49.0 -61.6 47.800000000000004 -61.2L46.5 -60.800000000000004L46.7 -58.6Q47.0 -56.2 47.300000000000004 -55.300000000000004Q47.6 -54.7 47.95 -54.6Q48.300000000000004 -54.5 49.5 -54.7Q51.400000000000006 -54.900000000000006 51.900000000000006 -55.400000000000006Q52.400000000000006 -55.900000000000006 52.7 -58.800000000000004Z"/><path fill="#202e35" d="M163.8 -54.800000000000004Q165.5 -55.800000000000004 167.55 -53.300000000000004Q169.60000000000002 -50.800000000000004 169.60000000000002 -47.800000000000004Q169.60000000000002 -46.0 170.05 -45.7Q170.5 -45.400000000000006 171.6 -46.800000000000004Q172.7 -48.2 173.85 -50.400000000000006Q175.0 -52.6 175.5 -54.300000000000004Q175.8 -55.2 176.10000000000002 -55.2Q176.3 -55.300000000000004 176.4 -55.0Q176.5 -54.5 176.4 -53.900000000000006L175.5 -48.400000000000006Q174.2 -40.0 173.4 -39.400000000000006Q172.9 -38.900000000000006 172.9 -38.300000000000004Q172.9 -37.7 171.7 -35.05Q170.5 -32.4 169.9 -30.3Q169.5 -28.3 168.8 -27.5Q168.10000000000002 -26.700000000000003 166.3 -26.200000000000003Q164.8 -25.700000000000003 164.35000000000002 -25.75Q163.9 -25.8 162.9 -26.6Q161.8 -27.400000000000002 161.45 -28.050000000000004Q161.1 -28.700000000000003 160.8 -30.6Q160.6 -32.1 160.2 -33.150000000000006Q159.8 -34.2 160.25 -34.7Q160.7 -35.2 160.39999999999998 -35.85Q160.1 -36.5 160.6 -37.5Q161.7 -39.800000000000004 162.1 -46.5Q162.3 -51.0 162.9 -52.35Q163.5 -53.7 163.3 -54.050000000000004Q163.1 -54.400000000000006 163.8 -54.800000000000004ZM143.2 -76.10000000000001Q143.9 -77.10000000000001 144.75 -77.20000000000002Q145.6 -77.30000000000001 148.0 -76.7Q151.4 -75.7 152.60000000000002 -74.85Q153.8 -74.0 154.9 -72.0Q156.0 -69.9 154.4 -69.0Q152.2 -67.5 149.5 -68.3Q147.6 -68.8 145.3 -68.3Q137.5 -66.60000000000001 137.5 -65.7Q137.5 -65.10000000000001 138.9 -64.0Q140.3 -62.900000000000006 140.7 -62.1Q141.2 -61.300000000000004 140.6 -60.0Q140.0 -58.7 138.6 -57.800000000000004Q137.0 -56.900000000000006 136.45 -55.550000000000004Q135.9 -54.2 134.4 -52.7Q133.2 -51.6 131.39999999999998 -48.75Q129.6 -45.900000000000006 129.9 -45.6Q130.1 -45.400000000000006 133.35 -46.85000000000001Q136.6 -48.300000000000004 140.2 -50.0L144.4 -52.1L144.1 -53.800000000000004Q143.9 -55.400000000000006 143.4 -56.0Q143.1 -56.400000000000006 143.2 -57.10000000000001Q143.3 -57.800000000000004 143.7 -58.2Q144.3 -58.6 145.35000000000002 -58.5Q146.4 -58.400000000000006 147.0 -58.0Q147.8 -57.300000000000004 148.7 -57.300000000000004Q149.5 -57.300000000000004 150.9 -56.400000000000006Q152.3 -55.5 153.2 -54.400000000000006Q156.5 -50.800000000000004 157.1 -50.800000000000004Q157.4 -50.800000000000004 157.4 -50.2Q157.4 -49.6 158.0 -49.2Q159.4 -48.1 157.9 -44.5Q157.4 -43.1 156.75 -42.400000000000006Q156.1 -41.7 154.6 -40.900000000000006Q150.3 -38.5 147.0 -46.1Q145.8 -48.7 145.45 -48.7Q145.1 -48.7 143.0 -46.550000000000004Q140.9 -44.400000000000006 139.3 -43.1L137.8 -41.800000000000004L138.8 -41.0Q139.7 -40.1 140.8 -39.6Q141.9 -38.900000000000006 142.7 -37.650000000000006Q143.5 -36.4 143.5 -35.300000000000004Q143.5 -34.4 143.75 -34.25Q144.0 -34.1 144.8 -34.1Q146.2 -34.1 147.3 -33.5Q148.0 -33.1 148.9 -31.6Q149.8 -30.1 149.6 -29.5Q149.2 -28.8 147.45 -28.0Q145.7 -27.200000000000003 144.5 -27.200000000000003Q143.1 -27.200000000000003 142.95 -26.700000000000003Q142.8 -26.200000000000003 142.6 -20.900000000000002L142.5 -15.700000000000001L143.7 -15.9Q145.0 -16.3 145.85 -16.85Q146.7 -17.400000000000002 148.3 -17.0Q149.9 -16.6 151.8 -16.6Q153.4 -16.6 154.35000000000002 -15.75Q155.3 -14.9 156.0 -12.9Q156.5 -11.4 156.5 -10.95Q156.5 -10.5 156.0 -10.0Q155.0 -8.9 153.35 -8.5Q151.7 -8.1 148.1 -8.1Q143.6 -8.0 142.85 -7.6Q142.1 -7.2 139.05 -6.75Q136.0 -6.300000000000001 135.15 -5.75Q134.3 -5.2 132.7 -4.9Q131.1 -4.6000000000000005 130.35 -4.050000000000001Q129.6 -3.5 128.7 -3.5Q126.6 -3.5 123.7 -0.8Q122.8 0.2 122.25 0.4Q121.7 0.6000000000000001 120.8 0.5Q119.1 0.2 118.5 -0.45000000000000007Q117.9 -1.1 117.5 -1.1Q117.1 -1.1 115.44999999999999 -2.75Q113.8 -4.4 113.8 -4.800000000000001Q113.8 -5.2 114.4 -5.4Q115.0 -5.6000000000000005 115.0 -6.4Q115.0 -7.0 117.25 -8.0Q119.5 -9.0 125.6 -11.0Q130.2 -12.5 131.3 -13.0Q132.4 -13.5 132.4 -14.200000000000001Q132.5 -15.200000000000001 133.0 -18.5Q133.5 -22.400000000000002 132.9 -22.400000000000002Q132.5 -22.400000000000002 131.9 -21.900000000000002Q129.9 -20.3 126.6 -22.200000000000003Q125.2 -23.1 124.9 -23.5Q124.6 -23.900000000000002 124.7 -24.700000000000003Q124.8 -25.5 125.35 -26.0Q125.9 -26.5 127.6 -27.5Q130.3 -29.1 132.4 -30.0L134.4 -30.900000000000002L135.2 -35.6Q135.8 -40.400000000000006 135.7 -40.5Q135.5 -40.7 132.4 -39.150000000000006Q129.3 -37.6 128.8 -37.1Q127.8 -35.7 123.6 -36.1Q122.7 -36.2 121.75 -37.25Q120.8 -38.300000000000004 120.8 -39.1Q120.8 -40.0 120.15 -40.8Q119.5 -41.6 119.5 -43.900000000000006Q119.5 -46.2 120.1 -47.400000000000006L121.2 -49.7Q121.6 -50.800000000000004 122.35 -50.800000000000004Q123.1 -50.800000000000004 123.7 -51.0Q124.3 -51.2 127.19999999999999 -54.5Q130.1 -57.800000000000004 130.4 -58.5Q130.7 -59.2 131.4 -60.2Q132.2 -61.1 132.1 -61.45Q132.0 -61.800000000000004 130.7 -62.2Q129.1 -62.7 126.8 -64.2Q125.3 -65.10000000000001 124.85 -65.65Q124.4 -66.2 124.3 -67.3Q124.2 -68.8 124.9 -69.55Q125.6 -70.3 128.0 -70.9L134.2 -72.8Q138.0 -73.9 140.15 -74.4Q142.3 -74.9 143.2 -76.10000000000001ZM180.0 -18.5Q179.8 -20.400000000000002 179.3 -32.25Q178.8 -44.1 179.4 -52.85Q180.0 -61.6 180.0 -70.8Q180.0 -80.0 180.65 -80.4Q181.3 -80.80000000000001 181.7 -80.9Q182.4 -80.9 184.60000000000002 -79.9Q186.8 -78.9 186.8 -78.5Q186.8 -78.10000000000001 187.9 -76.80000000000001Q189.9 -74.5 190.2 -72.30000000000001Q190.5 -70.10000000000001 189.60000000000002 -64.7Q188.4 -57.5 188.2 -35.7Q188.0 -19.6 188.35 -18.0Q188.7 -16.400000000000002 189.0 -10.600000000000001Q189.3 -4.800000000000001 188.60000000000002 -2.4000000000000004Q186.9 3.9000000000000004 186.10000000000002 4.6000000000000005Q185.5 5.300000000000001 185.5 5.5Q185.5 5.7 183.60000000000002 7.7Q182.2 9.1 181.55 9.5Q180.9 9.9 179.4 10.100000000000001Q177.7 10.4 177.2 10.2Q176.7 10.0 175.60000000000002 9.0Q174.3 7.6000000000000005 173.0 6.0Q171.7 4.4 169.05 1.6Q166.4 -1.2000000000000002 166.4 -1.4500000000000002Q166.4 -1.7000000000000002 164.0 -4.2Q161.6 -6.7 161.3 -7.4Q161.1 -8.0 161.9 -8.0Q162.7 -7.9 164.1 -7.2Q167.9 -5.300000000000001 173.8 -4.800000000000001Q177.0 -4.7 177.65 -4.75Q178.3 -4.800000000000001 178.7 -5.6000000000000005Q179.3 -6.5 179.8 -11.4Q180.3 -16.3 180.0 -18.5Z"/><path fill="#202e35" d="M271.3 -49.900000000000006Q271.6 -50.300000000000004 271.85 -50.400000000000006Q272.1 -50.5 273.2 -50.0Q274.1 -49.7 275.35 -48.1Q276.6 -46.5 277.2 -45.0Q277.4 -44.2 277.85 -43.95Q278.3 -43.7 279.6 -43.6Q281.7 -43.400000000000006 282.5 -42.400000000000006Q283.3 -41.400000000000006 283.3 -41.0Q283.3 -40.6 284.0 -39.900000000000006Q284.6 -39.0 284.35 -38.2Q284.1 -37.4 282.75 -36.9Q281.4 -36.4 280.0 -36.6Q278.8 -36.7 278.45000000000005 -36.6Q278.1 -36.5 277.7 -36.0Q277.3 -35.2 277.5 -33.95Q277.7 -32.7 278.5 -32.0Q279.0 -31.6 279.5 -31.55Q280.0 -31.5 281.4 -31.8Q284.9 -32.6 286.5 -31.400000000000002Q287.0 -30.900000000000002 287.8 -29.1Q288.6 -27.3 288.6 -26.700000000000003Q288.6 -26.0 287.65 -25.55Q286.7 -25.1 285.6 -25.1Q284.7 -25.1 282.8 -25.6Q279.0 -26.8 278.2 -25.700000000000003Q277.7 -25.3 277.54999999999995 -22.200000000000003Q277.4 -19.1 277.7 -18.5Q278.0 -18.1 285.8 -18.0L293.5 -17.900000000000002L294.6 -16.8Q296.7 -14.8 296.0 -11.8Q295.8 -10.700000000000001 294.3 -9.9Q292.8 -9.1 291.4 -9.4L286.6 -10.200000000000001Q283.3 -10.9 276.6 -11.5Q269.9 -12.100000000000001 269.2 -11.850000000000001Q268.5 -11.600000000000001 265.3 -11.5Q260.0 -11.3 260.0 -9.5Q260.0 -8.9 258.55 -8.45Q257.1 -8.0 255.8 -8.200000000000001L254.5 -8.3V-5.2Q254.6 -2.2 254.6 0.8Q254.6 3.8000000000000003 254.7 5.2Q255.1 9.600000000000001 253.89999999999998 10.3Q252.7 11.0 249.5 8.5Q246.9 6.2 246.45 5.45Q246.0 4.7 246.0 2.3000000000000003Q246.2 -2.7 246.64999999999998 -8.25Q247.1 -13.8 247.3 -14.5Q247.8 -15.200000000000001 247.85000000000002 -18.0Q247.9 -20.8 248.25 -22.6Q248.6 -24.400000000000002 249.0 -32.300000000000004Q249.4 -40.2 249.5 -42.1Q249.7 -43.900000000000006 250.35 -46.150000000000006Q251.0 -48.400000000000006 251.5 -48.7Q251.9 -48.900000000000006 252.9 -48.60000000000001Q253.9 -48.300000000000004 254.7 -47.5Q255.5 -46.900000000000006 255.9 -45.75Q256.3 -44.6 256.5 -41.6Q256.7 -39.300000000000004 256.85 -38.85000000000001Q257.0 -38.400000000000006 256.4 -35.050000000000004Q255.8 -31.700000000000003 255.65 -29.1Q255.5 -26.5 255.1 -22.85Q254.7 -19.200000000000003 254.8 -17.8Q254.8 -16.8 255.10000000000002 -16.55Q255.4 -16.3 256.5 -16.2Q258.0 -16.1 258.65 -16.4Q259.3 -16.7 259.8 -16.8Q262.7 -17.1 266.4 -17.6Q267.7 -17.8 268.1 -18.15Q268.5 -18.5 268.6 -21.700000000000003Q268.6 -23.700000000000003 268.5 -24.25Q268.4 -24.8 267.9 -24.900000000000002Q267.2 -25.1 266.4 -24.400000000000002Q265.6 -23.700000000000003 263.3 -23.6Q259.8 -23.5 259.6 -26.0Q259.5 -26.700000000000003 260.0 -27.150000000000002Q260.5 -27.6 262.5 -28.400000000000002Q265.4 -29.700000000000003 266.8 -30.3Q268.4 -30.700000000000003 268.85 -31.450000000000003Q269.3 -32.2 269.3 -34.2L269.5 -36.5L268.0 -36.4Q264.5 -36.2 263.6 -36.3Q262.7 -36.4 262.0 -37.0Q260.5 -38.6 261.65 -39.95Q262.8 -41.300000000000004 266.6 -42.300000000000004Q269.5 -42.900000000000006 269.75 -43.150000000000006Q270.0 -43.400000000000006 270.45 -46.45Q270.9 -49.5 271.3 -49.900000000000006ZM230.6 -62.5Q234.9 -62.900000000000006 235.7 -62.400000000000006Q236.1 -62.1 238.1 -62.0Q241.8 -61.800000000000004 243.3 -60.0Q243.9 -59.300000000000004 243.55 -57.650000000000006Q243.2 -56.0 242.1 -55.0Q240.4 -53.400000000000006 239.8 -51.900000000000006Q239.8 -51.6 239.9 -51.6Q239.9 -51.6 239.85000000000002 -51.3Q239.8 -51.0 239.60000000000002 -50.400000000000006Q239.4 -49.800000000000004 239.0 -49.1Q236.8 -43.300000000000004 236.2 -40.300000000000004Q235.9 -38.1 238.2 -35.800000000000004Q238.7 -35.300000000000004 238.85 -34.5Q239.0 -33.7 239.0 -31.3Q239.0 -27.5 238.5 -26.400000000000002Q238.2 -25.700000000000003 237.75 -25.550000000000004Q237.3 -25.400000000000002 235.7 -25.5Q233.4 -25.700000000000003 232.1 -26.8Q230.0 -28.3 229.7 -27.5Q229.7 -26.700000000000003 224.39999999999998 -21.400000000000002Q219.1 -16.1 216.7 -14.5Q212.8 -11.600000000000001 211.9 -12.700000000000001Q211.6 -13.200000000000001 212.25 -14.75Q212.9 -16.3 214.2 -18.1Q215.1 -19.3 215.1 -19.6Q215.1 -19.900000000000002 217.3 -22.550000000000004Q219.5 -25.200000000000003 221.55 -28.25Q223.6 -31.3 223.6 -31.900000000000002Q223.6 -32.7 224.0 -32.9Q225.4 -33.800000000000004 222.5 -36.6Q220.2 -39.0 219.45 -40.150000000000006Q218.7 -41.300000000000004 218.8 -42.5L219.0 -43.800000000000004L222.1 -43.7Q225.4 -43.6 226.7 -43.5Q227.7 -43.5 228.0 -43.75Q228.3 -44.0 228.8 -45.7Q229.7 -48.1 230.5 -51.900000000000006Q231.3 -55.7 231.4 -56.900000000000006Q231.4 -58.300000000000004 230.6 -58.400000000000006Q229.6 -58.5 226.89999999999998 -57.6Q224.2 -56.7 223.7 -55.900000000000006Q222.3 -54.0 219.6 -55.5Q217.9 -56.300000000000004 217.9 -58.300000000000004Q217.9 -59.300000000000004 219.9 -60.0Q224.7 -62.1 230.6 -62.5ZM267.5 -69.7Q268.4 -70.3 271.2 -69.95Q274.0 -69.60000000000001 275.2 -69.0Q278.5 -66.9 278.5 -63.1Q278.5 -61.0 277.85 -59.400000000000006Q277.2 -57.800000000000004 276.3 -57.6Q275.7 -57.6 276.3 -57.400000000000006Q276.5 -57.300000000000004 276.9 -57.2Q278.2 -56.900000000000006 282.4 -57.2Q288.6 -57.800000000000004 289.7 -56.300000000000004Q290.2 -55.800000000000004 290.54999999999995 -54.10000000000001Q290.9 -52.400000000000006 290.7 -51.5Q290.4 -49.800000000000004 288.54999999999995 -49.550000000000004Q286.7 -49.300000000000004 284.0 -50.5Q280.8 -51.900000000000006 273.65 -51.45Q266.5 -51.0 262.8 -49.0Q260.6 -47.900000000000006 259.0 -49.300000000000004Q256.8 -50.900000000000006 257.4 -52.2Q257.6 -52.7 259.95000000000005 -53.800000000000004Q262.3 -54.900000000000006 263.3 -54.900000000000006Q264.3 -54.900000000000006 265.4 -55.400000000000006Q266.9 -55.900000000000006 272.9 -56.800000000000004L274.5 -57.0L272.9 -57.800000000000004Q271.3 -58.5 270.05 -60.900000000000006Q268.8 -63.300000000000004 268.8 -63.75Q268.8 -64.2 267.8 -66.3Q266.9 -68.10000000000001 266.85 -68.75Q266.8 -69.4 267.5 -69.7ZM255.8 -77.9Q256.7 -80.10000000000001 256.7 -80.20000000000002Q256.7 -80.30000000000001 257.65 -80.70000000000002Q258.6 -81.10000000000001 258.9 -81.10000000000001Q259.4 -81.2 261.75 -79.55000000000001Q264.1 -77.9 265.1 -76.80000000000001Q266.5 -75.2 266.35 -74.05000000000001Q266.2 -72.9 264.3 -70.9Q262.9 -69.4 260.0 -65.0Q257.1 -60.6 257.1 -59.800000000000004Q257.1 -59.5 255.95000000000002 -57.900000000000006Q254.8 -56.300000000000004 253.3 -53.7Q251.0 -49.900000000000006 249.2 -47.900000000000006Q248.6 -47.400000000000006 248.6 -46.95Q248.6 -46.5 248.3 -46.35Q248.0 -46.2 247.0 -45.0Q245.5 -43.1 243.5 -41.55Q241.5 -40.0 240.7 -40.0Q239.9 -40.0 239.8 -40.2Q239.7 -40.400000000000006 239.9 -41.6Q240.2 -43.400000000000006 241.0 -44.800000000000004Q241.8 -46.2 241.8 -46.7Q241.8 -47.2 242.10000000000002 -47.2Q242.4 -47.2 243.0 -48.5Q243.6 -49.800000000000004 244.8 -51.900000000000006Q248.3 -58.2 250.3 -62.800000000000004Q250.6 -63.5 252.9 -69.60000000000001Z"/><path fill="#202e35" d="M378.4 -71.5Q382.0 -72.10000000000001 382.95 -72.10000000000001Q383.9 -72.10000000000001 385.1 -71.7Q387.6 -70.60000000000001 387.1 -67.3Q386.7 -65.0 385.15 -64.5Q383.6 -64.0 380.3 -65.10000000000001Q378.1 -65.8 375.35 -66.1Q372.6 -66.4 371.4 -65.9Q370.8 -65.7 370.6 -65.35Q370.4 -65.0 370.4 -64.0Q370.4 -62.400000000000006 369.54999999999995 -60.60000000000001Q368.7 -58.800000000000004 368.9 -58.650000000000006Q369.1 -58.5 372.4 -58.2Q375.5 -58.0 376.85 -57.55Q378.2 -57.1 379.4 -56.1Q383.3 -52.7 381.5 -50.0Q381.1 -49.300000000000004 381.05 -47.400000000000006Q381.0 -45.5 381.2 -38.400000000000006Q381.4 -29.5 381.4 -27.4Q381.4 -25.3 381.1 -25.0Q380.8 -24.700000000000003 379.1 -24.5Q377.9 -24.3 377.45 -24.450000000000003Q377.0 -24.6 376.1 -25.700000000000003Q374.2 -27.700000000000003 373.7 -29.25Q373.2 -30.8 373.3 -34.7Q373.5 -39.1 373.1 -42.8Q372.7 -46.5 372.4 -50.2L372.2 -54.0L369.0 -54.300000000000004Q366.8 -54.400000000000006 366.0 -54.300000000000004Q365.2 -54.2 363.5 -53.300000000000004Q361.0 -52.2 360.0 -50.800000000000004L358.9 -49.400000000000006L359.1 -41.400000000000006Q359.7 -26.5 360.2 -26.3Q360.5 -26.200000000000003 360.9 -26.900000000000002Q361.0 -27.200000000000003 361.6 -28.3Q362.8 -30.8 363.1 -32.25Q363.4 -33.7 363.6 -39.2Q363.9 -44.900000000000006 364.4 -46.25Q364.9 -47.6 366.4 -47.300000000000004Q367.8 -47.1 368.85 -45.8Q369.9 -44.5 370.4 -42.7Q371.0 -39.900000000000006 369.6 -33.9Q369.3 -32.300000000000004 368.75 -29.750000000000004Q368.2 -27.200000000000003 367.5 -26.400000000000002L366.7 -25.400000000000002L368.7 -25.8Q372.1 -26.200000000000003 377.3 -23.6Q380.7 -21.900000000000002 381.7 -21.050000000000004Q382.7 -20.200000000000003 383.1 -18.7Q383.7 -16.7 383.65 -16.3Q383.6 -15.9 382.8 -15.100000000000001Q380.2 -12.600000000000001 377.8 -13.200000000000001Q376.6 -13.700000000000001 373.1 -16.400000000000002Q369.6 -19.1 369.5 -19.700000000000003Q369.5 -20.1 368.35 -21.3Q367.2 -22.5 367.2 -23.5Q367.2 -24.8 366.9 -24.8Q366.3 -24.700000000000003 362.1 -19.900000000000002Q360.4 -17.900000000000002 358.3 -16.2L356.2 -14.5L357.6 -14.100000000000001Q359.1 -13.8 362.5 -13.100000000000001L371.1 -11.600000000000001Q376.4 -10.600000000000001 379.45 -10.25Q382.5 -9.9 383.45 -9.5Q384.4 -9.1 387.0 -9.200000000000001Q389.6 -9.3 395.45000000000005 -8.600000000000001Q401.3 -7.9 402.2 -7.4Q403.0 -7.0 402.8 -6.300000000000001Q402.6 -5.6000000000000005 401.4 -5.300000000000001Q400.3 -5.0 400.3 -4.6Q400.3 -4.2 397.6 -3.1Q395.6 -2.1 393.0 0.15000000000000013Q390.4 2.4000000000000004 390.4 3.3000000000000003Q390.4 4.3 388.6 4.0Q385.7 3.4000000000000004 379.4 2.7Q374.9 2.1 371.35 0.9500000000000001Q367.8 -0.2 364.85 -0.9Q361.9 -1.6 360.35 -2.35Q358.8 -3.1 356.5 -3.8000000000000003Q354.3 -4.6000000000000005 349.65 -6.75Q345.0 -8.9 342.7 -10.4Q340.4 -11.8 339.65 -11.8Q338.9 -11.8 336.9 -13.8Q334.9 -15.8 333.15 -17.25Q331.4 -18.7 330.8 -19.1Q330.0 -19.900000000000002 329.3 -19.35Q328.6 -18.8 327.4 -16.2Q325.8 -12.9 324.35 -11.2Q322.9 -9.5 322.9 -9.25Q322.9 -9.0 322.29999999999995 -9.0Q321.7 -9.0 321.7 -8.700000000000001Q321.7 -8.3 318.85 -5.6000000000000005Q316.0 -2.9000000000000004 314.2 -1.5Q309.8 1.6 309.2 1.1Q309.1 0.8 310.8 -1.3Q316.2 -7.9 318.3 -11.3Q322.7 -18.3 324.6 -25.900000000000002Q326.1 -31.3 326.8 -32.300000000000004Q328.0 -33.9 327.3 -34.1Q326.8 -34.1 325.4 -33.150000000000006Q324.0 -32.2 323.8 -31.700000000000003Q323.4 -30.3 322.4 -29.25Q321.4 -28.200000000000003 320.5 -28.200000000000003Q319.0 -28.200000000000003 316.8 -29.400000000000002Q314.6 -30.6 314.6 -31.5Q314.6 -32.2 316.35 -33.75Q318.1 -35.300000000000004 320.0 -36.300000000000004Q322.8 -37.6 327.95000000000005 -39.25Q333.1 -40.900000000000006 337.4 -41.800000000000004Q341.3 -42.6 346.45000000000005 -43.05Q351.6 -43.5 352.3 -43.1Q353.0 -42.800000000000004 353.2 -41.800000000000004Q353.7 -39.2 351.7 -38.2Q350.9 -37.7 350.29999999999995 -37.650000000000006Q349.7 -37.6 348.3 -38.1Q346.8 -38.400000000000006 345.05 -38.35000000000001Q343.3 -38.300000000000004 342.9 -37.800000000000004Q342.8 -37.6 343.20000000000005 -36.650000000000006Q343.6 -35.7 343.3 -34.4Q342.9 -32.800000000000004 343.25 -32.25Q343.6 -31.700000000000003 344.8 -32.0Q346.1 -32.300000000000004 347.9 -32.2Q349.7 -32.1 350.45 -31.75Q351.2 -31.400000000000002 351.2 -29.400000000000002Q351.2 -27.700000000000003 350.4 -27.150000000000002Q349.6 -26.6 346.6 -26.3L343.9 -26.1L343.8 -22.900000000000002L343.7 -19.700000000000003L346.8 -18.3Q349.9 -16.900000000000002 350.5 -16.900000000000002Q351.1 -16.900000000000002 351.3 -16.400000000000002Q351.7 -15.9 352.4 -16.1Q353.1 -16.3 353.7 -17.2L356.5 -20.5L358.3 -22.700000000000003L357.0 -24.400000000000002Q355.8 -26.0 355.8 -26.75Q355.8 -27.5 355.35 -28.200000000000003Q354.9 -28.900000000000002 355.45 -31.450000000000003Q356.0 -34.0 355.85 -43.400000000000006Q355.7 -52.800000000000004 355.75 -53.60000000000001Q355.8 -54.400000000000006 358.4 -55.7Q361.0 -57.0 361.3 -57.7Q361.7 -59.0 363.2 -62.1Q364.2 -64.2 363.5 -65.10000000000001Q363.3 -65.3 362.8 -64.9Q362.5 -64.7 360.0 -63.800000000000004Q355.1 -62.1 353.7 -64.3Q353.1 -65.5 353.20000000000005 -66.15Q353.3 -66.8 354.3 -67.60000000000001Q356.8 -69.7 368.8 -70.60000000000001Q374.9 -71.0 378.4 -71.5ZM337.2 -36.4Q337.6 -37.0 337.6 -37.1Q337.6 -37.2 336.9 -37.2Q336.0 -37.2 335.1 -36.9L331.8 -35.800000000000004Q329.6 -35.2 329.6 -34.900000000000006Q329.6 -34.6 330.70000000000005 -34.0Q331.8 -33.4 332.5 -31.200000000000003Q333.3 -28.8 332.5 -26.400000000000002Q332.3 -25.900000000000002 332.65 -25.550000000000004Q333.0 -25.200000000000003 334.4 -24.5Q336.7 -23.5 336.9 -23.5Q337.0 -23.5 337.0 -24.3Q337.0 -25.1 337.0 -26.5Q337.0 -27.900000000000002 336.9 -29.6Q336.7 -35.5 337.2 -36.4ZM336.1 -74.7Q336.3 -74.9 339.25 -74.6Q342.2 -74.3 343.0 -73.9Q344.1 -73.4 344.5 -73.5Q345.6 -73.60000000000001 347.6 -72.75Q349.6 -71.9 349.6 -71.2Q349.6 -70.7 350.3 -70.10000000000001Q352.3 -68.3 351.1 -65.5Q350.3 -63.800000000000004 350.0 -63.6Q349.2 -63.0 348.5 -54.400000000000006Q348.3 -51.0 347.8 -50.55Q347.3 -50.1 347.3 -49.6Q347.3 -48.800000000000004 346.35 -47.650000000000006Q345.4 -46.5 344.3 -46.1L342.8 -45.400000000000006L341.5 -46.6Q340.7 -47.5 340.1 -47.7Q339.5 -47.900000000000006 338.0 -47.900000000000006Q336.1 -47.900000000000006 333.5 -46.95Q330.9 -46.0 330.1 -45.0Q329.5 -44.300000000000004 328.6 -44.300000000000004Q327.7 -44.300000000000004 326.75 -46.7Q325.8 -49.1 326.0 -51.400000000000006Q326.1 -54.400000000000006 324.0 -61.900000000000006Q323.3 -64.60000000000001 323.3 -65.30000000000001Q323.3 -66.0 324.2 -67.60000000000001Q326.1 -71.2 328.1 -72.6Q330.1 -74.0 334.0 -74.4Q335.9 -74.5 336.1 -74.7ZM340.7 -69.60000000000001Q337.6 -70.7 332.0 -69.9Q330.2 -69.5 329.45 -68.9Q328.7 -68.3 329.0 -67.3Q329.2 -66.5 329.4 -64.2Q329.6 -61.900000000000006 329.75 -61.7Q329.9 -61.5 332.8 -62.5Q336.6 -63.800000000000004 338.1 -63.45Q339.6 -63.1 339.2 -61.1Q338.7 -58.300000000000004 333.7 -57.800000000000004Q331.0 -57.6 330.45 -57.05Q329.9 -56.5 330.1 -54.6Q330.4 -52.2 331.0 -51.85Q331.6 -51.5 333.9 -52.400000000000006Q336.4 -53.400000000000006 338.5 -53.6Q339.8 -53.7 340.20000000000005 -54.0Q340.6 -54.300000000000004 340.9 -55.0Q341.3 -56.2 341.3 -58.800000000000004Q341.3 -61.400000000000006 341.70000000000005 -63.35Q342.1 -65.3 342.4 -67.10000000000001L342.6 -68.9Z"/><path fill="#202e35" d="M455.3 -21.900000000000002 454.9 -24.6Q454.9 -25.200000000000003 455.4 -25.200000000000003Q458.8 -25.200000000000003 461.1 -21.150000000000002Q463.4 -17.1 463.4 -14.75Q463.4 -12.4 462.95 -10.3Q462.5 -8.200000000000001 459.85 -1.6500000000000004Q457.2 4.9 455.75 4.9Q454.3 4.9 453.5 1.5500000000000003Q452.7 -1.8 452.7 -5.15Q452.7 -8.5 453.35 -11.75Q454.0 -15.0 454.4 -17.0Q455.3 -20.6 455.3 -21.900000000000002Z"/><path fill="#2864df" d="M551.6 -65.60000000000001Q552.4 -66.2 553.45 -66.2Q554.5 -66.2 557.7 -65.8Q559.8 -65.4 560.1 -61.900000000000006Q560.3 -59.800000000000004 559.3 -58.650000000000006Q558.3 -57.5 555.7 -56.900000000000006Q549.6 -55.7 549.5 -54.900000000000006Q549.5 -54.6 549.9 -54.2Q550.9 -53.400000000000006 552.0999999999999 -51.75Q553.3 -50.1 553.3 -49.400000000000006Q553.3 -48.5 552.75 -47.400000000000006Q552.2 -46.300000000000004 551.9 -44.7L551.6 -43.1L553.4 -43.400000000000006Q558.9 -44.2 561.1 -45.5Q562.1 -45.900000000000006 564.3 -45.60000000000001Q566.5 -45.300000000000004 568.4 -44.400000000000006L570.0 -43.6L573.6 -45.0Q581.1 -47.900000000000006 588.3 -46.7Q594.2 -45.7 595.1 -46.6Q596.2 -47.6 598.9 -45.300000000000004Q600.2 -44.0 600.7 -44.0Q601.8 -43.900000000000006 604.0 -41.0Q605.3 -39.400000000000006 604.75 -38.900000000000006Q604.2 -38.400000000000006 604.7 -37.9Q605.1 -37.5 604.75 -36.6Q604.4 -35.7 603.9 -35.7Q603.5 -35.7 600.75 -32.1Q598.0 -28.5 597.35 -28.15Q596.7 -27.8 595.6 -26.6Q594.5 -25.400000000000002 593.2 -24.8Q591.1 -23.8 592.0 -23.1Q592.4 -22.900000000000002 593.0 -22.900000000000002Q594.3 -22.900000000000002 594.5 -22.450000000000003Q594.7 -22.0 595.5 -22.0Q596.3 -22.0 597.7 -20.6Q601.3 -17.0 598.1 -13.700000000000001Q597.1 -12.600000000000001 596.1500000000001 -12.600000000000001Q595.2 -12.600000000000001 592.5 -13.8Q591.6 -14.200000000000001 588.4000000000001 -14.350000000000001Q585.2 -14.5 584.0 -14.100000000000001Q582.5 -13.8 581.4 -13.600000000000001Q580.8 -13.4 580.5999999999999 -13.100000000000001Q580.4 -12.8 580.4 -11.9Q580.4 -10.200000000000001 578.9 -8.700000000000001Q577.4 -7.2 575.6 -7.1000000000000005Q574.5 -7.1000000000000005 573.8 -8.5Q572.8 -10.5 571.45 -14.55Q570.1 -18.6 569.9 -20.200000000000003Q569.5 -22.200000000000003 568.6 -24.700000000000003Q567.7 -27.200000000000003 566.95 -31.150000000000002Q566.2 -35.1 565.6 -36.7L565.0 -38.400000000000006L560.8 -38.300000000000004Q555.0 -38.2 551.0 -37.1Q550.4 -36.9 550.1 -35.6Q548.8 -28.700000000000003 548.0 -26.400000000000002Q547.2 -24.400000000000002 547.45 -24.0Q547.7 -23.6 549.5 -24.0Q555.0 -24.8 558.45 -23.200000000000003Q561.9 -21.6 564.1 -17.3Q564.8 -16.0 565.0999999999999 -13.3Q565.4 -10.600000000000001 564.4 -8.950000000000001Q563.4 -7.300000000000001 562.4 -6.7Q561.6 -6.300000000000001 561.2 -6.300000000000001Q560.8 -6.300000000000001 559.8 -6.8500000000000005Q558.8 -7.4 557.05 -9.350000000000001Q555.3 -11.3 555.3 -12.0Q555.3 -12.3 553.7 -13.850000000000001Q552.1 -15.4 549.6 -19.200000000000003Q547.2 -22.200000000000003 546.8 -22.200000000000003Q546.2 -20.6 543.55 -15.05Q540.9 -9.5 540.4 -9.0Q539.6 -8.1 539.6 -7.6000000000000005Q539.6 -6.5 534.8 -2.9000000000000004Q532.5 -1.2000000000000002 532.25 -0.6000000000000001Q532.0 0.0 531.45 0.0Q530.9 0.0 529.9 1.0Q528.9 2.0 528.2 2.0Q527.5 2.0 526.0 3.0Q523.9 4.4 520.3499999999999 5.9Q516.8 7.4 516.0 7.2Q515.1 6.9 515.1 6.65Q515.1 6.4 520.9000000000001 0.6000000000000001Q526.7 -5.2 528.6 -8.0Q530.5 -10.8 531.0 -11.3Q532.2 -12.700000000000001 534.9 -16.900000000000002Q536.6 -19.6 538.3 -23.700000000000003Q540.0 -27.8 540.8 -30.950000000000003Q541.6 -34.1 541.0 -34.1Q540.2 -34.1 536.1500000000001 -32.25Q532.1 -30.400000000000002 530.4 -29.200000000000003Q527.6 -27.400000000000002 527.4 -27.400000000000002Q527.1 -27.400000000000002 526.3 -26.6Q525.5 -25.8 525.1 -25.0Q524.6 -24.1 523.55 -23.8Q522.5 -23.5 520.5 -24.450000000000003Q518.5 -25.400000000000002 518.05 -26.400000000000002Q517.6 -27.400000000000002 517.2 -27.400000000000002Q516.1 -27.400000000000002 517.0 -28.900000000000002Q517.3 -29.700000000000003 518.1 -30.1Q524.1 -33.800000000000004 540.0 -39.400000000000006L543.1 -40.6L543.5 -43.0Q544.1 -45.5 544.4 -50.2L544.8 -55.0L543.8 -55.800000000000004Q542.2 -57.0 541.1 -58.3Q540.0 -59.6 540.1 -59.900000000000006Q540.4 -60.900000000000006 547.7 -63.7Q550.6 -64.9 551.6 -65.60000000000001ZM592.5 -39.800000000000004Q591.9 -41.1 582.0 -39.300000000000004Q573.8 -37.800000000000004 573.3 -36.0Q573.1 -35.0 573.95 -33.0Q574.8 -31.0 574.8 -29.450000000000003Q574.8 -27.900000000000002 575.25 -27.6Q575.7 -27.3 575.7 -26.6Q575.7 -25.5 576.75 -23.35Q577.8 -21.200000000000003 578.4 -21.200000000000003Q578.8 -21.200000000000003 581.5999999999999 -23.900000000000002Q584.4 -26.6 586.2 -28.6Q589.2 -32.4 590.7 -35.2Q591.0 -35.7 591.4 -36.4Q592.8 -38.900000000000006 592.5 -39.800000000000004ZM536.9 -75.5Q536.9 -76.2 536.95 -76.85Q537.0 -77.5 537.75 -77.75Q538.5 -78.0 539.1 -78.0Q539.5 -78.0 541.0 -76.9Q542.5 -75.8 543.3 -74.9Q544.0 -74.0 544.25 -72.6Q544.5 -71.2 544.0 -70.65Q543.5 -70.10000000000001 543.9 -69.9Q544.1 -69.60000000000001 541.3 -64.55000000000001Q538.5 -59.5 536.6 -57.0Q534.9 -54.7 531.75 -51.300000000000004Q528.6 -47.900000000000006 526.9 -46.5Q525.7 -45.6 523.8 -44.6Q521.9 -43.6 521.4 -43.6Q519.9 -43.6 521.5 -45.6Q521.9 -46.2 522.7 -47.2Q525.1 -49.7 525.1 -49.95Q525.1 -50.2 526.3 -52.0Q533.1 -62.2 535.0 -68.10000000000001Q536.7 -73.3 536.9 -75.5Z"/><path fill="#2864df" d="M632.0 -48.7Q634.5 -49.6 635.85 -49.6Q637.2 -49.6 638.8 -48.5Q640.1 -47.5 640.45 -46.900000000000006Q640.8 -46.300000000000004 641.2 -43.5Q641.4 -42.6 641.5 -42.1Q641.7 -40.900000000000006 640.2 -40.0Q638.9 -39.400000000000006 637.65 -38.10000000000001Q636.4 -36.800000000000004 635.0 -35.7Q634.0 -35.0 633.85 -34.55Q633.7 -34.1 633.9 -32.9Q634.3 -31.1 634.4 -29.3Q634.5 -27.5 635.5 -25.85Q636.5 -24.200000000000003 637.65 -21.950000000000003Q638.8 -19.700000000000003 640.5 -16.900000000000002Q642.2 -14.100000000000001 641.9 -13.100000000000001Q641.6 -12.5 642.1500000000001 -12.25Q642.7 -12.0 645.5 -11.3Q649.4 -10.5 653.3 -8.9Q658.0 -6.9 666.4 -4.800000000000001L670.2 -3.8000000000000003Q672.8 -3.2 687.4 -3.0Q702.0 -2.8000000000000003 703.9 -2.5Q705.2 -2.4000000000000004 705.55 -2.2Q705.9 -2.0 705.9 -1.3Q705.9 -0.30000000000000004 704.2 0.45000000000000007Q702.5 1.2000000000000002 701.9 1.2000000000000002Q701.0 1.2000000000000002 697.3 4.45Q693.6 7.7 692.8 9.1Q692.3 9.8 690.4 9.8Q688.5 9.8 685.25 9.350000000000001Q682.0 8.9 680.7 8.5Q676.9 7.4 670.9 6.5Q668.1 6.2 665.8 5.2Q663.5 4.2 654.6 -0.4Q648.3 -3.6 642.8 -5.0Q640.1 -5.7 635.6 -5.35Q631.1 -5.0 629.8 -3.9000000000000004Q628.5 -3.1 628.4 -2.7Q628.4 -2.1 627.3499999999999 -1.0Q626.3 0.1 625.6 0.5Q624.7 0.8 624.35 0.75Q624.0 0.7000000000000001 623.4 0.0Q622.4 -0.9 622.4 -1.45Q622.4 -2.0 621.8 -2.0Q621.2 -2.0 621.2 -3.5Q621.2 -6.0 624.9 -7.800000000000001L628.5 -9.600000000000001Q630.5 -10.4 632.0 -12.05Q633.5 -13.700000000000001 633.2 -14.8Q632.9 -15.700000000000001 630.4 -23.0Q629.3 -26.1 629.0 -30.6Q628.7 -35.1 629.3 -37.6Q630.5 -42.400000000000006 630.3 -42.60000000000001Q630.1 -42.800000000000004 626.8 -41.0Q624.4 -39.7 622.8 -38.25Q621.2 -36.800000000000004 621.2 -36.1Q621.2 -35.0 619.6 -36.4Q619.4 -36.6 619.2 -36.9Q617.8 -38.400000000000006 618.05 -39.25Q618.3 -40.1 618.4 -41.0Q618.5 -41.7 619.55 -42.400000000000006Q620.6 -43.1 624.0 -44.900000000000006Q629.5 -47.7 632.0 -48.7ZM629.5 -69.7Q630.3 -69.9 631.5 -70.10000000000001Q632.9 -70.10000000000001 636.45 -68.9Q640.0 -67.7 640.3 -67.2Q641.4 -65.10000000000001 640.7 -62.25000000000001Q640.0 -59.400000000000006 638.2 -58.400000000000006Q634.5 -56.400000000000006 630.2 -63.1Q626.8 -68.60000000000001 629.5 -69.7ZM654.3 -74.0Q654.6 -74.9 655.1500000000001 -74.9Q655.7 -74.9 658.2 -74.0L661.0 -73.2L662.9 -74.10000000000001Q665.6 -75.4 665.6 -74.60000000000001Q665.6 -74.0 664.6 -72.9Q664.0 -72.4 663.85 -71.55000000000001Q663.7 -70.7 663.7 -68.3Q663.7 -65.10000000000001 663.1500000000001 -64.45Q662.6 -63.800000000000004 660.4 -64.10000000000001Q659.0 -64.3 658.05 -65.1Q657.1 -65.9 655.8 -68.3Q653.5 -72.3 654.3 -74.0ZM673.8 -71.5Q673.9 -71.8 676.25 -75.4Q678.6 -79.0 678.6 -79.35Q678.6 -79.7 679.3 -80.15Q680.0 -80.60000000000001 680.85 -80.4Q681.7 -80.2 682.2 -80.2Q682.7 -80.2 684.6 -78.35Q686.5 -76.5 686.85 -76.5Q687.2 -76.5 687.2 -75.0Q687.1 -71.8 684.0 -71.4Q682.6 -71.2 682.4000000000001 -70.5Q682.2 -69.8 679.7 -68.10000000000001Q678.2 -67.0 677.1 -66.15Q676.0 -65.3 675.45 -64.75Q674.9 -64.2 675.1 -64.0Q675.3 -63.800000000000004 680.2 -64.3Q693.8 -65.5 696.1 -63.800000000000004Q696.7 -63.300000000000004 697.2 -62.10000000000001Q697.7 -60.900000000000006 697.7 -59.900000000000006Q697.7 -58.7 696.3 -58.1Q695.3 -57.5 694.65 -57.55Q694.0 -57.6 691.7 -58.5Q689.5 -59.300000000000004 687.95 -59.45Q686.4 -59.6 681.0 -59.6Q673.5 -59.6 672.3 -59.300000000000004Q671.4 -59.1 671.3499999999999 -58.95Q671.3 -58.800000000000004 671.8 -58.300000000000004Q673.2 -56.7 671.7 -54.5L670.0 -52.1Q668.8 -50.300000000000004 669.9 -50.1Q670.1 -50.1 670.3 -50.300000000000004Q671.2 -50.5 676.9000000000001 -50.05Q682.6 -49.6 684.0 -49.300000000000004Q686.3 -48.6 686.55 -47.55Q686.8 -46.5 685.9 -41.6Q685.4 -38.800000000000004 685.6 -30.1Q685.7 -24.3 685.6500000000001 -22.200000000000003Q685.6 -20.1 685.1 -17.7Q683.7 -11.4 680.1 -7.800000000000001Q678.4 -5.9 677.4 -5.7Q676.4 -5.5 675.3 -6.800000000000001Q674.3 -7.9 672.65 -9.100000000000001Q671.0 -10.3 670.65 -10.9Q670.3 -11.5 669.0999999999999 -12.65Q667.9 -13.8 666.45 -13.600000000000001Q665.0 -13.4 663.95 -12.7Q662.9 -12.0 661.0 -12.0Q659.8 -12.0 659.4 -11.8Q659.0 -11.600000000000001 658.9 -11.200000000000001Q658.8 -10.3 657.8499999999999 -10.200000000000001Q656.9 -10.100000000000001 656.7 -10.9Q656.4 -11.5 655.5 -12.8Q654.6 -14.100000000000001 654.35 -15.9Q654.1 -17.7 653.7 -18.4Q653.3 -19.1 653.6 -20.700000000000003Q655.1 -25.8 655.1 -36.4Q655.2 -41.800000000000004 655.3 -43.2Q655.4 -44.6 655.9 -45.0Q656.6 -45.5 656.2 -45.6Q655.7 -45.7 656.9 -46.6Q657.3 -46.7 657.6 -47.0Q659.7 -48.2 661.5 -51.0Q665.4 -57.0 665.1 -57.7Q665.0 -58.1 659.95 -56.85Q654.9 -55.6 654.0 -55.1Q653.1 -54.800000000000004 651.4000000000001 -54.25Q649.7 -53.7 648.2 -54.300000000000004Q645.8 -55.400000000000006 646.8 -57.2Q647.4 -58.2 651.9 -59.400000000000006Q662.2 -62.2 665.1 -62.2Q666.4 -62.2 667.8 -63.7Q668.8 -64.7 671.0999999999999 -67.75Q673.4 -70.8 673.8 -71.5ZM675.2 -46.400000000000006Q673.3 -47.1 669.75 -46.900000000000006Q666.2 -46.7 663.2 -45.900000000000006Q661.4 -45.300000000000004 661.0 -44.85000000000001Q660.6 -44.400000000000006 661.1 -43.800000000000004Q661.5 -43.1 661.1 -42.05Q660.7 -41.0 660.8 -40.900000000000006Q660.9 -40.800000000000004 663.5 -41.7Q666.2 -42.6 668.95 -42.400000000000006Q671.7 -42.2 672.5 -41.1Q673.3 -40.1 673.2 -38.900000000000006L673.1 -37.6L667.8 -36.5Q662.5 -35.4 661.45 -35.55Q660.4 -35.7 659.9 -35.5Q659.6 -35.300000000000004 659.4000000000001 -33.35Q659.2 -31.400000000000002 659.5 -31.1Q659.7 -31.0 663.3 -32.2Q666.9 -33.4 669.5 -33.6Q671.2 -33.9 671.7 -33.7Q672.2 -33.5 672.7 -32.800000000000004Q673.4 -31.8 673.2 -30.200000000000003Q672.9 -28.900000000000002 672.4 -28.300000000000004Q671.9 -27.700000000000003 670.7 -27.5Q669.5 -27.3 668.6 -26.8L665.9 -25.700000000000003Q664.1 -25.1 663.6 -24.400000000000002Q662.9 -23.400000000000002 659.5 -24.400000000000002Q658.8 -24.6 658.8499999999999 -24.1Q658.9 -23.6 659.0 -21.8Q659.0 -20.6 659.15 -20.25Q659.3 -19.900000000000002 660.0 -19.900000000000002Q661.0 -19.900000000000002 662.05 -20.35Q663.1 -20.8 667.9 -21.200000000000003Q671.4 -21.5 672.3 -21.450000000000003Q673.2 -21.400000000000002 674.2 -20.8L675.7 -20.0L676.1 -21.900000000000002Q676.5 -23.900000000000002 676.35 -29.550000000000004Q676.2 -35.2 676.2 -40.6Q676.2 -44.6 676.0 -45.35Q675.8 -46.1 675.2 -46.400000000000006Z"/><path fill="#2864df" d="M748.4 -42.800000000000004Q751.5 -43.6 758.2 -43.6Q772.0 -43.800000000000004 773.9 -39.400000000000006Q774.3 -38.1 773.5 -34.2Q773.3 -33.1 772.0999999999999 -32.45Q770.9 -31.8 769.7 -29.3Q768.6 -27.3 768.7 -26.9Q768.8 -26.5 770.2 -25.6Q770.8 -25.400000000000002 771.0 -23.050000000000004Q771.2 -20.700000000000003 770.7 -19.6Q769.9 -17.400000000000002 765.3 -19.3Q760.3 -21.400000000000002 755.0 -20.200000000000003Q753.9 -20.0 753.55 -19.5Q753.2 -19.0 752.8 -16.8Q752.6 -15.8 752.35 -15.5Q752.1 -15.200000000000001 751.4 -15.200000000000001Q750.4 -15.200000000000001 749.7 -16.55Q749.0 -17.900000000000002 748.3 -18.6Q747.1 -19.900000000000002 746.0 -23.6Q745.7 -24.900000000000002 744.6 -27.900000000000002Q743.5 -30.900000000000002 743.5 -32.050000000000004Q743.5 -33.2 742.2 -35.5Q741.3 -37.2 741.2 -37.7Q741.1 -38.2 741.6 -39.0Q743.1 -41.5 748.4 -42.800000000000004ZM761.6 -37.5Q760.9 -37.6 756.55 -37.8Q752.2 -38.0 751.5 -37.9Q749.3 -37.4 749.0 -37.05Q748.7 -36.7 748.7 -34.7Q748.7 -32.7 749.4000000000001 -30.25Q750.1 -27.8 750.9 -27.0Q751.5 -26.5 753.6 -26.900000000000002L758.0 -27.6Q759.6 -27.8 759.9000000000001 -28.1Q760.2 -28.400000000000002 760.4 -29.700000000000003Q760.7 -31.400000000000002 761.1 -32.300000000000004Q761.7 -33.300000000000004 761.9000000000001 -35.300000000000004Q762.1 -37.300000000000004 761.6 -37.5ZM757.7 -76.80000000000001Q757.7 -77.30000000000001 758.6500000000001 -78.05000000000001Q759.6 -78.80000000000001 760.1 -78.80000000000001Q760.8 -78.80000000000001 763.4 -77.4Q766.0 -76.0 767.4 -74.8Q768.8 -73.7 769.0999999999999 -73.1Q769.4 -72.5 769.4 -71.2Q769.4 -69.9 769.2 -69.4Q769.0 -68.9 767.7 -68.10000000000001Q765.9 -66.8 765.4 -66.8Q764.9 -66.8 763.9 -65.3Q762.9 -63.800000000000004 761.05 -62.650000000000006Q759.2 -61.5 757.6500000000001 -60.05Q756.1 -58.6 754.9 -57.6L753.8 -56.7L760.8 -56.800000000000004Q771.5 -56.900000000000006 778.6 -54.800000000000004Q780.5 -54.300000000000004 782.3 -54.0Q783.6 -53.800000000000004 788.05 -52.150000000000006Q792.5 -50.5 794.8 -49.300000000000004Q796.6 -48.5 797.5 -46.400000000000006Q798.3 -44.5 798.45 -42.3Q798.6 -40.1 798.1 -34.5Q797.5 -28.900000000000002 797.5 -24.5Q797.3 -16.3 796.1 -14.5Q795.5 -13.4 795.5 -13.0Q795.5 -12.600000000000001 794.85 -11.0Q794.2 -9.4 793.8 -8.6Q793.3 -8.0 792.8 -7.0Q791.7 -3.8000000000000003 790.8 -3.4000000000000004Q790.3 -3.0 790.3 -2.6Q790.3 -2.2 789.0 -0.25Q787.7 1.7000000000000002 787.7 2.0Q787.7 2.6 784.2 5.300000000000001L782.9 6.4Q782.3 6.800000000000001 779.0 7.500000000000001Q775.7 8.200000000000001 774.6 8.200000000000001Q773.8 8.200000000000001 773.8 7.4Q773.8 6.6000000000000005 772.95 5.5Q772.1 4.4 772.1 3.9000000000000004Q772.0 1.4000000000000001 768.0 -2.8000000000000003Q765.7 -5.300000000000001 765.1 -6.300000000000001Q764.5 -7.300000000000001 765.2 -8.0Q766.0 -8.9 768.35 -8.8Q770.7 -8.700000000000001 772.1 -7.9Q773.6 -7.1000000000000005 775.0 -6.6000000000000005Q776.1 -6.300000000000001 776.55 -6.3500000000000005Q777.0 -6.4 778.1 -7.2Q780.2 -8.9 780.8 -9.8Q781.4 -10.700000000000001 783.0 -14.700000000000001Q784.6 -18.900000000000002 785.0 -30.900000000000002Q785.2 -40.2 784.9 -42.7Q784.8 -44.2 784.45 -44.85Q784.1 -45.5 783.1 -46.2Q780.0 -48.6 769.85 -50.150000000000006Q759.7 -51.7 753.6 -50.7Q743.1 -49.1 739.2 -46.800000000000004L737.3 -45.6L737.4 -38.900000000000006Q737.5 -32.300000000000004 737.95 -30.35Q738.4 -28.400000000000002 738.75 -21.05Q739.1 -13.700000000000001 739.4 -10.4Q739.6 -8.0 739.4000000000001 -7.15Q739.2 -6.300000000000001 738.3 -4.6000000000000005Q736.9 -2.3000000000000003 736.25 -2.0Q735.6 -1.7000000000000002 734.55 -2.4000000000000004Q733.5 -3.1 733.5 -3.8000000000000003Q733.5 -4.6000000000000005 732.85 -5.450000000000001Q732.2 -6.300000000000001 732.2 -7.4Q732.2 -8.5 731.6500000000001 -9.3Q731.1 -10.100000000000001 731.45 -10.900000000000002Q731.8 -11.700000000000001 731.7 -13.75Q731.6 -15.8 731.8 -19.5Q731.9 -26.3 730.5 -35.1Q730.1 -37.5 729.8 -42.900000000000006L729.5 -48.300000000000004L731.6 -49.7Q735.0 -51.800000000000004 739.8 -53.6Q744.7 -55.300000000000004 744.7 -56.5Q744.7 -56.900000000000006 746.8 -59.400000000000006Q752.1 -65.60000000000001 753.5 -67.9Q754.6 -69.5 756.1500000000001 -72.85Q757.7 -76.2 757.7 -76.80000000000001Z"/><path fill="#2864df" d="M881.5 -51.400000000000006Q882.5 -52.1 884.3 -51.25Q886.1 -50.400000000000006 886.4 -48.900000000000006Q886.8 -47.7 887.0 -46.400000000000006L887.4 -45.300000000000004L890.3 -45.5Q893.9 -45.800000000000004 895.0 -44.85000000000001Q896.1 -43.900000000000006 894.6 -41.5Q893.2 -39.1 890.2 -39.300000000000004Q889.0 -39.5 888.6 -39.3Q888.2 -39.1 887.8 -38.400000000000006Q887.3 -37.4 887.4 -35.6L887.5 -33.9L892.2 -33.7Q896.1 -33.4 897.25 -33.1Q898.4 -32.800000000000004 898.9 -31.900000000000002Q899.3 -31.1 898.75 -29.650000000000002Q898.2 -28.200000000000003 897.1500000000001 -27.5Q896.1 -26.8 892.5 -26.5L888.9 -26.1L888.3 -24.0Q887.7 -21.8 887.5 -18.8Q887.3 -16.7 887.3499999999999 -16.2Q887.4 -15.700000000000001 887.9 -15.4Q888.9 -15.200000000000001 897.7 -15.05Q906.5 -14.9 907.4 -14.4Q908.9 -13.600000000000001 908.7 -11.55Q908.5 -9.5 906.7 -7.9Q905.2 -6.5 903.6500000000001 -6.45Q902.1 -6.4 898.4 -7.6000000000000005Q892.2 -9.5 882.8 -9.25Q873.4 -9.0 868.3 -6.7Q866.0 -5.7 865.1 -5.9Q864.4 -6.1000000000000005 864.25 -5.8500000000000005Q864.1 -5.6000000000000005 864.1 -4.800000000000001Q863.9 -3.4000000000000004 863.8 -2.25Q863.7 -1.1 864.0 -1.1Q864.3 -1.1 864.8499999999999 0.25Q865.4 1.6 864.7 3.5Q863.6 6.4 861.8 7.5Q860.0 8.6 858.7 7.300000000000001Q855.4 3.9000000000000004 857.0 -5.0Q858.4 -12.9 858.7 -28.1Q858.9 -34.4 859.3499999999999 -38.05Q859.8 -41.7 860.0 -44.1Q860.2 -46.2 860.95 -48.2Q861.7 -50.2 862.5 -50.6Q863.2 -50.800000000000004 864.3 -50.400000000000006Q865.0 -50.1 865.2 -49.650000000000006Q865.4 -49.2 865.4 -47.7Q865.6 -45.300000000000004 865.2 -33.9Q865.0 -24.5 864.75 -23.15Q864.5 -21.8 864.3 -16.7Q864.2 -11.9 864.6 -11.9Q864.7 -11.9 865.1 -12.0Q871.2 -13.8 875.2 -14.3Q877.9 -14.8 878.15 -15.0Q878.4 -15.200000000000001 878.5999999999999 -20.1Q878.8 -25.0 878.3499999999999 -25.25Q877.9 -25.5 875.2 -24.700000000000003Q873.2 -23.900000000000002 872.1 -24.1Q871.0 -24.3 870.0 -25.3Q869.5 -25.900000000000002 869.5 -26.25Q869.5 -26.6 870.1 -27.5Q870.8 -28.6 872.5999999999999 -29.400000000000002Q874.4 -30.200000000000003 875.9 -30.200000000000003Q876.7 -30.3 877.7 -31.0Q878.4 -31.6 878.5 -32.150000000000006Q878.6 -32.7 878.4 -35.1Q878.1 -38.400000000000006 877.6500000000001 -38.400000000000006Q877.2 -38.400000000000006 875.0 -37.5Q871.1 -36.1 870.0 -37.5Q869.5 -38.0 869.5 -38.3Q869.5 -38.6 870.1 -39.6Q870.7 -40.5 872.7 -41.55Q874.7 -42.6 877.0 -43.1Q879.1 -43.400000000000006 879.1 -46.5Q879.1 -47.5 879.95 -49.2Q880.8 -50.900000000000006 881.5 -51.400000000000006ZM838.8 -51.300000000000004Q840.5 -52.7 843.7 -51.7Q846.9 -50.7 846.9 -48.7Q846.9 -48.0 845.75 -45.7Q844.6 -43.400000000000006 844.0 -40.800000000000004Q843.4 -38.2 842.8 -37.3Q842.2 -36.4 842.0 -30.6Q841.8 -24.8 841.3 -23.200000000000003Q841.0 -22.1 841.1 -19.950000000000003Q841.2 -17.8 841.5 -17.8Q841.8 -17.8 843.3 -18.9Q844.8 -20.0 845.1 -20.3Q845.4 -20.6 847.5 -22.400000000000002Q851.2 -25.700000000000003 851.2 -22.900000000000002Q851.2 -21.8 849.5 -18.15Q847.8 -14.5 847.1 -13.9Q846.4 -13.4 846.4 -13.0Q846.4 -12.700000000000001 845.5 -11.3Q844.6 -9.9 844.25 -9.7Q843.9 -9.5 843.9 -9.05Q843.9 -8.6 842.7 -7.1000000000000005Q841.0 -4.9 839.6 -1.9000000000000001Q838.5 0.2 838.15 0.85Q837.8 1.5 836.9 2.1Q835.3 3.3000000000000003 834.3 2.1500000000000004Q833.3 1.0 832.8 -2.8000000000000003Q832.5 -5.9 832.6 -7.1000000000000005Q832.7 -8.3 833.7 -10.100000000000001Q834.7 -12.4 835.2 -15.0Q835.4 -16.1 835.65 -23.5Q835.9 -30.900000000000002 835.95 -36.75Q836.0 -42.6 835.9 -43.5Q835.6 -43.5 833.25 -42.400000000000006Q830.9 -41.300000000000004 829.5999999999999 -39.2Q828.3 -37.1 827.6 -36.9Q826.8 -36.7 825.65 -37.2Q824.5 -37.7 824.5 -38.2Q824.5 -38.800000000000004 823.9 -39.0Q823.6 -39.1 823.4000000000001 -40.05Q823.2 -41.0 823.25 -41.85Q823.3 -42.7 823.7 -42.7Q824.1 -42.7 824.0 -43.300000000000004Q823.9 -43.5 824.15 -43.7Q824.4 -43.900000000000006 825.45 -44.45Q826.5 -45.0 828.05 -45.85Q829.6 -46.7 833.0 -48.2Q837.6 -50.5 838.8 -51.300000000000004ZM890.0 -58.400000000000006Q893.9 -58.900000000000006 894.95 -58.900000000000006Q896.0 -58.900000000000006 896.9 -58.6Q899.2 -57.400000000000006 897.6 -54.300000000000004Q896.8 -52.7 895.5999999999999 -52.400000000000006Q894.4 -52.1 892.0 -52.800000000000004Q890.2 -53.400000000000006 888.5 -53.35000000000001Q886.8 -53.300000000000004 882.1 -52.7Q874.6 -51.5 871.2 -50.0Q869.3 -49.1 868.3 -49.6Q867.5 -50.0 867.5 -51.1Q867.5 -52.2 868.5 -53.1Q871.2 -55.900000000000006 882.5 -57.300000000000004Q886.2 -57.800000000000004 890.0 -58.400000000000006ZM877.0 -70.4Q877.5 -71.0 879.05 -71.05000000000001Q880.6 -71.10000000000001 882.1 -70.5Q885.2 -69.5 887.0 -67.35Q888.8 -65.2 888.3 -63.1Q888.1 -61.6 886.55 -59.85Q885.0 -58.1 884.0 -58.1Q883.1 -58.1 881.5 -59.650000000000006Q879.9 -61.2 879.0 -63.1Q878.2 -64.9 877.3 -65.8Q876.6 -66.60000000000001 876.45 -68.15Q876.3 -69.7 877.0 -70.4ZM838.4 -66.4Q836.7 -68.3 836.6500000000001 -69.2Q836.6 -70.10000000000001 838.2 -70.75Q839.8 -71.4 842.2 -71.45Q844.6 -71.5 846.5 -70.2Q849.4 -68.3 850.4 -66.4Q851.4 -64.5 850.8 -61.6Q850.1 -58.5 849.55 -57.900000000000006Q849.0 -57.300000000000004 846.4 -57.6Q843.6 -57.800000000000004 842.7 -58.95Q841.8 -60.1 841.8 -61.0Q841.8 -62.800000000000004 838.4 -66.4ZM865.3 -77.4Q865.7 -78.30000000000001 866.35 -78.65Q867.0 -79.0 867.3 -78.4Q867.5 -78.0 868.4 -78.2Q869.3 -78.4 871.45 -76.4Q873.6 -74.4 873.6 -73.9Q873.6 -72.9 869.2 -65.2Q868.0 -63.1 867.0 -61.2Q866.0 -59.300000000000004 864.8 -57.60000000000001Q863.6 -55.900000000000006 863.6 -55.5Q863.6 -55.1 862.3 -53.300000000000004Q856.7 -46.2 851.25 -41.05Q845.8 -35.9 843.9 -35.9Q843.1 -35.9 844.3 -37.5Q844.4 -37.7 844.7 -38.0Q846.1 -39.6 846.1 -39.900000000000006Q846.1 -40.2 847.7 -42.400000000000006Q850.4 -46.2 853.1 -51.300000000000004Q853.5 -52.1 853.85 -52.1Q854.2 -52.1 854.6 -53.1Q855.0 -54.1 855.5 -54.800000000000004Q858.3 -59.800000000000004 860.95 -65.4Q863.6 -71.0 864.1 -73.0Q864.9 -76.0 865.3 -77.4Z"/><path fill="#2864df" d="M972.5 -38.0Q973.3 -38.2 976.0 -37.95Q978.7 -37.7 980.1 -37.4Q981.8 -36.9 983.05 -36.9Q984.3 -36.9 984.5999999999999 -36.45Q984.9 -36.0 985.95 -35.400000000000006Q987.0 -34.800000000000004 989.0 -33.300000000000004L990.9 -32.0L990.6 -28.1Q990.3 -23.5 990.5 -7.5Q990.6 3.4000000000000004 988.6 4.9Q988.1 5.4 987.8 6.6000000000000005Q987.5 7.9 985.85 9.25Q984.2 10.600000000000001 982.6 10.700000000000001Q980.1 10.8 979.7 10.700000000000001Q979.3 10.600000000000001 979.2 9.600000000000001Q978.9 8.4 976.9 7.050000000000001Q974.9 5.7 973.7 4.7L971.6 3.2Q970.5 2.4000000000000004 972.0 2.1Q972.6 1.9000000000000001 974.1 1.7000000000000002Q978.2 0.9 979.2 -1.0000000000000002Q980.2 -2.9000000000000004 980.5 -10.3Q980.9 -22.8 979.5 -30.400000000000002Q979.2 -31.900000000000002 978.9000000000001 -32.300000000000004Q978.6 -32.7 977.6 -33.0Q976.1 -33.300000000000004 973.85 -33.300000000000004Q971.6 -33.300000000000004 970.7 -32.9Q968.4 -31.8 966.9 -29.950000000000003Q965.4 -28.1 965.4 -26.200000000000003Q965.4 -25.400000000000002 965.9 -25.400000000000002Q966.4 -25.400000000000002 968.8 -26.1Q972.3 -27.3 976.8 -26.1Q977.8 -25.8 978.05 -25.55Q978.3 -25.3 978.3 -24.3Q978.3 -23.3 977.95 -22.85Q977.6 -22.400000000000002 976.4 -21.700000000000003Q974.5 -20.5 973.65 -20.5Q972.8 -20.5 970.4 -19.65Q968.0 -18.8 966.7 -18.8Q965.9 -18.8 965.65 -18.55Q965.4 -18.3 965.3 -17.0Q965.2 -15.200000000000001 965.4000000000001 -15.200000000000001Q965.6 -15.200000000000001 968.1 -16.0Q974.0 -17.900000000000002 976.3 -15.9Q977.4 -15.0 977.5999999999999 -13.75Q977.8 -12.5 977.0 -11.8L975.3 -10.4Q974.3 -9.5 966.3 -8.5L964.6 -8.3L964.8 -4.6000000000000005Q965.0 -0.9 965.25 1.0000000000000002Q965.5 2.9000000000000004 964.8 4.4Q964.2 5.5 963.85 5.75Q963.5 6.0 962.4 6.0Q961.3 6.0 960.9 5.75Q960.5 5.5 960.0 4.4Q958.0 0.0 959.1 -4.0Q960.5 -9.1 961.0 -12.700000000000001Q961.3 -15.700000000000001 961.75 -17.150000000000002Q962.2 -18.6 962.25 -20.85Q962.3 -23.1 962.5999999999999 -25.1Q962.9 -27.1 962.3499999999999 -27.55Q961.8 -28.0 961.8 -28.65Q961.8 -29.3 962.5 -31.0Q962.9 -32.2 963.5 -32.900000000000006Q964.1 -33.6 966.2 -34.9Q969.9 -37.4 972.5 -38.0ZM936.5 -45.900000000000006Q936.8 -45.900000000000006 938.45 -46.95Q940.1 -48.0 942.35 -48.3Q944.6 -48.6 944.9 -48.7Q945.4 -48.7 946.15 -48.2Q946.9 -47.7 947.2 -47.1Q947.7 -46.400000000000006 947.3 -44.45Q946.9 -42.5 946.2 -42.1Q945.6 -41.6 945.2 -37.400000000000006Q944.8 -33.2 944.4 -32.5Q944.1 -31.900000000000002 943.85 -28.25Q943.6 -24.6 943.6 -21.55Q943.6 -18.5 943.8 -18.1Q944.2 -18.1 948.1 -21.900000000000002Q952.0 -25.700000000000003 953.1 -27.1Q954.5 -29.0 955.5 -28.400000000000002Q955.7 -28.3 955.7 -27.900000000000002Q955.7 -27.200000000000003 954.1500000000001 -24.400000000000002Q952.6 -21.6 950.9 -19.3Q948.2 -15.600000000000001 944.7 -9.5Q941.2 -3.4000000000000004 941.2 -2.5Q941.2 -0.7000000000000001 938.5 1.3Q937.2 2.4000000000000004 936.6500000000001 2.45Q936.1 2.5 935.0 1.8Q934.4 1.2000000000000002 933.45 -0.55Q932.5 -2.3000000000000003 932.6 -2.8000000000000003Q932.7 -3.3000000000000003 931.95 -4.1000000000000005Q931.2 -4.9 931.3 -8.3Q931.3 -11.0 931.8 -12.05Q932.3 -13.100000000000001 933.8 -13.600000000000001Q934.8 -14.0 935.2 -15.6Q935.6 -17.2 936.0 -22.200000000000003Q936.3 -28.3 937.0 -30.700000000000003Q937.6 -33.9 938.0 -36.95Q938.4 -40.0 938.1 -40.300000000000004Q937.5 -40.900000000000006 933.9 -38.35000000000001Q930.3 -35.800000000000004 930.3 -35.0Q930.3 -33.800000000000004 928.9 -33.5Q927.5 -33.2 926.3 -34.1Q925.6 -34.6 925.45 -35.35Q925.3 -36.1 925.6 -37.9Q925.9 -39.0 926.3499999999999 -39.55Q926.8 -40.1 928.6 -41.2Q935.9 -45.900000000000006 936.5 -45.900000000000006ZM939.0 -68.8Q939.6 -69.3 941.85 -69.2Q944.1 -69.10000000000001 945.9 -68.5Q947.5 -68.0 948.3 -66.4Q950.1 -62.900000000000006 950.1 -60.900000000000006Q950.1 -59.800000000000004 948.95 -57.85000000000001Q947.8 -55.900000000000006 947.0 -55.800000000000004Q945.8 -55.5 944.3 -56.45Q942.8 -57.400000000000006 942.0 -58.900000000000006Q941.1 -60.800000000000004 939.2 -63.0Q937.7 -64.60000000000001 937.5 -65.10000000000001Q937.3 -65.60000000000001 937.7 -66.8Q938.3 -68.2 939.0 -68.8ZM969.8 -81.30000000000001Q969.9 -81.5 971.65 -81.4Q973.4 -81.30000000000001 974.6 -81.0Q976.2 -80.5 977.55 -79.15Q978.9 -77.80000000000001 979.6 -76.10000000000001Q980.0 -74.5 979.6 -74.05000000000001Q979.2 -73.60000000000001 979.2 -71.0V-68.5L984.0 -68.8Q988.5 -69.0 989.65 -68.7Q990.8 -68.4 991.7 -66.7Q992.3 -65.2 992.15 -64.75Q992.0 -64.3 990.3 -63.300000000000004Q987.8 -62.0 983.4 -63.1Q980.5 -63.7 979.85 -63.550000000000004Q979.2 -63.400000000000006 979.0 -62.0Q978.8 -60.300000000000004 979.0999999999999 -59.800000000000004Q979.4 -59.300000000000004 980.8 -59.300000000000004Q982.2 -59.300000000000004 983.7 -58.1Q984.9 -57.2 985.05 -56.7Q985.2 -56.2 984.7 -54.7Q984.4 -53.5 983.9 -53.3Q983.4 -53.1 981.6 -53.2Q980.1 -53.2 979.6500000000001 -52.6Q979.2 -52.0 978.9 -49.800000000000004L978.6 -47.400000000000006L983.4 -47.800000000000004Q988.2 -48.2 998.1 -48.0H1007.9L1009.0 -46.7Q1010.1 -45.400000000000006 1010.4 -43.400000000000006Q1010.7 -41.900000000000006 1010.5 -41.5Q1010.3 -41.1 1009.7 -40.400000000000006Q1007.5 -38.6 1003.4 -39.400000000000006Q1001.2 -39.900000000000006 998.1 -40.300000000000004L991.1 -41.300000000000004Q988.0 -41.7 979.75 -41.75Q971.5 -41.800000000000004 968.8 -41.5Q965.7 -41.0 958.8 -38.900000000000006Q956.2 -38.1 955.3 -37.75Q954.4 -37.4 954.0 -36.6Q953.1 -35.1 952.0 -34.95Q950.9 -34.800000000000004 948.9 -35.7Q947.3 -36.5 946.95 -36.900000000000006Q946.6 -37.300000000000004 946.5 -38.2Q946.3 -39.7 947.2 -40.300000000000004Q948.4 -41.300000000000004 950.05 -42.050000000000004Q951.7 -42.800000000000004 952.5 -42.800000000000004Q954.7 -42.900000000000006 968.1 -47.0Q968.7 -47.1 968.6500000000001 -49.3Q968.6 -51.5 968.0 -51.5Q967.4 -51.5 967.4 -51.0Q967.4 -50.400000000000006 966.4 -50.150000000000006Q965.4 -49.900000000000006 964.4 -50.1Q963.6 -50.300000000000004 962.3 -51.1Q961.4 -51.6 961.25 -52.0Q961.1 -52.400000000000006 961.2 -53.1Q961.8 -55.7 967.1 -56.6Q968.3 -56.800000000000004 968.65 -57.650000000000006Q969.0 -58.5 969.0 -61.1V-62.900000000000006L966.5 -62.7Q964.7 -62.400000000000006 962.45 -61.650000000000006Q960.2 -60.900000000000006 960.2 -60.5Q960.2 -59.900000000000006 959.4000000000001 -59.800000000000004Q958.6 -59.7 957.9 -60.1L957.0 -60.800000000000004L957.8 -62.400000000000006Q958.6 -64.2 960.1 -64.7Q961.8 -65.5 964.3499999999999 -66.2Q966.9 -66.9 967.9 -66.9Q969.0 -66.9 969.15 -67.4Q969.3 -67.9 969.55 -74.55000000000001Q969.8 -81.2 969.8 -81.30000000000001Z"/><path fill="#2864df" d="M1054.5 -78.5Q1055.2 -79.0 1055.9 -78.95Q1056.6 -78.9 1056.6 -78.4Q1056.6 -78.0 1057.65 -77.5Q1058.7 -77.0 1059.4 -75.2Q1060.0 -74.0 1060.05 -73.25Q1060.1 -72.5 1059.6 -70.2Q1058.9 -66.3 1059.6 -66.2Q1060.0 -66.2 1060.6 -66.9Q1061.6 -68.0 1064.1 -67.65Q1066.6 -67.3 1066.9 -66.10000000000001Q1067.2 -65.3 1067.8 -65.9Q1068.0 -66.10000000000001 1068.6 -66.8Q1071.1 -69.5 1072.8 -66.8Q1074.4 -64.2 1073.2 -62.0Q1072.7 -61.0 1070.15 -57.1Q1067.6 -53.2 1067.6 -53.0Q1067.6 -52.800000000000004 1070.35 -52.85000000000001Q1073.1 -52.900000000000006 1074.7 -52.6Q1075.9 -52.300000000000004 1076.2 -52.5Q1076.5 -52.7 1077.0 -53.900000000000006Q1077.7 -55.400000000000006 1078.6 -58.400000000000006L1079.7 -62.900000000000006Q1081.0 -67.60000000000001 1081.0 -70.3Q1081.0 -71.5 1081.75 -73.75Q1082.5 -76.0 1082.9 -76.0Q1084.7 -76.0 1086.8 -73.10000000000001L1088.1 -71.3L1088.0 -66.3Q1088.0 -61.400000000000006 1087.35 -60.050000000000004Q1086.7 -58.7 1086.7 -58.1Q1086.7 -57.5 1085.95 -54.5Q1085.2 -51.5 1084.8 -50.6Q1084.7 -50.1 1085.1 -50.1Q1085.3 -50.1 1086.4 -50.400000000000006Q1088.1 -50.7 1092.1999999999998 -51.150000000000006Q1096.3 -51.6 1097.4 -52.2Q1098.5 -52.800000000000004 1099.7 -52.5Q1100.9 -52.2 1101.5500000000002 -51.300000000000004Q1102.2 -50.400000000000006 1102.8 -47.800000000000004Q1103.2 -46.0 1103.15 -45.5Q1103.1 -45.0 1102.4 -44.300000000000004Q1100.8 -42.800000000000004 1099.6 -42.35000000000001Q1098.4 -41.900000000000006 1095.8 -42.2Q1091.5 -42.7 1091.9 -41.800000000000004Q1092.0 -41.6 1092.5 -41.2Q1093.5 -40.6 1094.2 -38.800000000000004Q1094.6 -37.6 1094.6 -36.900000000000006Q1094.6 -36.2 1094.0 -34.2Q1093.1 -31.3 1092.9499999999998 -29.85Q1092.8 -28.400000000000002 1092.15 -27.900000000000002Q1091.5 -27.400000000000002 1091.5 -26.400000000000002Q1091.5 -25.400000000000002 1091.0 -24.200000000000003Q1089.9 -22.1 1089.9 -21.450000000000003Q1089.9 -20.8 1090.9 -19.700000000000003Q1093.2 -17.1 1100.2 -12.4Q1107.2 -7.7 1112.0 -5.4Q1113.8 -4.6000000000000005 1114.3 -4.15Q1114.8 -3.7 1115.0 -2.7Q1115.3 -1.0 1114.6 -0.45Q1113.9 0.1 1110.9 0.1Q1108.4 0.2 1107.35 0.5Q1106.3 0.8 1103.4 2.3000000000000003Q1101.0 3.6 1092.9 -4.3Q1088.4 -8.8 1088.4 -9.25Q1088.4 -9.700000000000001 1086.6 -11.650000000000002Q1084.8 -13.600000000000001 1084.4499999999998 -13.600000000000001Q1084.1 -13.600000000000001 1083.1 -12.700000000000001Q1077.7 -7.9 1073.9 -5.9Q1072.5 -5.2 1068.7 -2.75Q1064.9 -0.30000000000000004 1062.6 0.0Q1058.1 0.7000000000000001 1057.6 2.2Q1057.3 3.0 1055.0 4.75Q1052.7 6.5 1051.9 7.300000000000001Q1049.9 9.3 1047.4 7.2Q1045.9 5.800000000000001 1045.9 5.3500000000000005Q1045.9 4.9 1045.25 4.25Q1044.6 3.6 1043.0 1.9000000000000001Q1041.4 0.2 1041.0500000000002 0.2Q1040.7 0.2 1040.9 -0.30000000000000004Q1041.1 -0.8 1039.65 -2.35Q1038.2 -3.9000000000000004 1038.35 -4.1Q1038.5 -4.3 1041.9 -2.9Q1045.3 -1.5 1047.0 -1.2000000000000002Q1048.3 -1.0 1048.85 -1.3Q1049.4 -1.6 1051.3 -3.6Q1053.9 -6.300000000000001 1054.65 -8.25Q1055.4 -10.200000000000001 1055.8 -11.0Q1056.2 -12.0 1056.7 -14.950000000000001Q1057.2 -17.900000000000002 1057.1 -18.2Q1056.5 -19.1 1049.8 -17.35Q1043.1 -15.600000000000001 1042.2 -14.3Q1041.2 -13.100000000000001 1039.5500000000002 -13.900000000000002Q1037.9 -14.700000000000001 1038.0 -16.3Q1038.2 -19.0 1041.8 -20.8Q1044.0 -21.900000000000002 1048.1 -23.25Q1052.2 -24.6 1053.9 -24.8Q1055.7 -25.1 1055.9 -25.400000000000002Q1056.1 -25.700000000000003 1055.7 -27.400000000000002Q1055.5 -28.6 1055.65 -29.400000000000002Q1055.8 -30.200000000000003 1056.9 -32.4Q1059.1 -37.2 1058.7 -37.5Q1058.4 -37.7 1057.4 -37.7Q1056.3 -37.7 1055.4499999999998 -37.1Q1054.6 -36.5 1051.9 -33.9Q1048.2 -30.1 1046.15 -28.450000000000003Q1044.1 -26.8 1043.05 -25.9Q1042.0 -25.0 1040.2 -23.700000000000003Q1038.4 -22.400000000000002 1036.75 -20.950000000000003Q1035.1 -19.5 1033.05 -18.3Q1031.0 -17.1 1029.6 -16.0Q1026.1 -13.4 1025.0 -14.4Q1024.7 -14.700000000000001 1027.15 -17.400000000000002Q1029.6 -20.1 1036.8 -27.200000000000003Q1040.5 -30.900000000000002 1041.2 -31.800000000000004Q1041.9 -32.7 1041.5 -33.300000000000004Q1040.8 -34.6 1041.35 -35.400000000000006Q1041.9 -36.2 1044.4 -37.5Q1047.5 -39.0 1049.0 -40.5Q1049.9 -41.300000000000004 1051.9 -44.150000000000006Q1053.9 -47.0 1054.4 -47.800000000000004Q1054.5 -48.1 1053.6 -48.150000000000006Q1052.7 -48.2 1051.2 -48.150000000000006Q1049.7 -48.1 1048.2 -47.800000000000004Q1045.0 -47.300000000000004 1040.65 -45.800000000000004Q1036.3 -44.300000000000004 1035.4 -43.300000000000004Q1034.3 -42.1 1033.6999999999998 -42.150000000000006Q1033.1 -42.2 1031.15 -43.900000000000006Q1029.2 -45.6 1029.4 -46.5Q1029.9 -48.300000000000004 1035.3 -49.5Q1037.5 -49.900000000000006 1043.6 -51.400000000000006L1049.6 -52.900000000000006L1049.7 -54.1Q1050.0 -55.400000000000006 1050.3 -57.95Q1050.6 -60.5 1050.4499999999998 -60.650000000000006Q1050.3 -60.800000000000004 1048.6 -60.35000000000001Q1046.9 -59.900000000000006 1046.6 -59.6Q1045.7 -58.7 1044.1 -59.800000000000004Q1043.5 -60.300000000000004 1043.3 -62.5Q1043.1 -64.3 1043.75 -64.75Q1044.4 -65.2 1047.3 -65.5Q1050.4 -65.9 1051.0 -66.15Q1051.6 -66.4 1051.6 -67.3Q1051.6 -68.4 1052.1 -69.8Q1052.6 -71.60000000000001 1053.4 -77.30000000000001Q1053.5 -78.10000000000001 1054.5 -78.5ZM1063.6 -61.0Q1062.8 -61.300000000000004 1061.3 -61.300000000000004Q1060.3 -61.300000000000004 1060.05 -61.050000000000004Q1059.8 -60.800000000000004 1059.6 -59.7Q1059.3 -58.300000000000004 1059.15 -57.25Q1059.0 -56.2 1059.3 -55.2Q1059.5 -54.400000000000006 1060.1 -55.0Q1060.4 -55.300000000000004 1061.3 -56.400000000000006Q1062.9 -58.6 1063.6 -59.7Q1064.0 -60.5 1064.0 -60.7Q1064.0 -60.900000000000006 1063.6 -61.0ZM1072.4 -42.800000000000004Q1073.8 -45.2 1073.9499999999998 -45.900000000000006Q1074.1 -46.6 1073.1999999999998 -47.1Q1072.3 -47.6 1068.6 -47.800000000000004Q1065.5 -48.1 1064.5 -47.45Q1063.5 -46.800000000000004 1060.1 -42.7Q1058.7 -41.0 1061.7 -40.900000000000006Q1063.1 -40.900000000000006 1063.3 -40.550000000000004Q1063.5 -40.2 1064.55 -40.2Q1065.6 -40.2 1065.65 -40.050000000000004Q1065.7 -39.900000000000006 1066.6 -38.75Q1067.5 -37.6 1067.1 -36.4Q1066.4 -34.300000000000004 1062.3 -31.700000000000003Q1060.0 -30.200000000000003 1059.9 -30.1Q1059.8 -30.0 1060.4499999999998 -29.05Q1061.1 -28.1 1061.1 -27.5Q1061.1 -26.5 1061.9499999999998 -25.950000000000003Q1062.8 -25.400000000000002 1065.1 -25.0Q1068.1 -24.5 1068.9 -23.6Q1069.4 -22.900000000000002 1069.5500000000002 -21.35Q1069.7 -19.8 1069.0 -19.5Q1068.3 -19.0 1066.85 -18.55Q1065.4 -18.1 1064.5500000000002 -18.1Q1063.7 -18.1 1063.6 -17.8Q1063.5 -17.5 1063.6 -15.700000000000001Q1063.8 -13.8 1062.8 -8.950000000000001Q1061.8 -4.1000000000000005 1061.0 -2.5Q1060.4 -1.5 1061.0 -1.6Q1061.6 -1.9000000000000001 1064.8 -3.9000000000000004Q1072.7 -9.200000000000001 1079.1 -17.6L1080.7 -19.8L1079.9 -21.400000000000002Q1076.0 -29.200000000000003 1075.0 -32.5Q1074.4 -34.9 1074.0500000000002 -34.9Q1073.7 -34.9 1072.65 -33.6Q1071.6 -32.300000000000004 1071.3 -32.300000000000004Q1071.0 -32.300000000000004 1069.4 -30.550000000000004Q1067.8 -28.8 1066.9499999999998 -28.55Q1066.1 -28.3 1065.35 -26.85Q1064.6 -25.400000000000002 1064.0 -25.400000000000002Q1062.9 -25.400000000000002 1064.0 -27.400000000000002L1065.6 -30.6Q1067.8 -35.0 1069.8 -37.9Q1070.8 -39.7 1070.8 -39.85Q1070.8 -40.0 1072.4 -42.800000000000004ZM1088.0 -41.900000000000006Q1086.5 -42.400000000000006 1084.3 -41.5Q1082.9 -40.900000000000006 1081.85 -41.10000000000001Q1080.8 -41.300000000000004 1079.2 -39.900000000000006L1077.7 -38.400000000000006L1079.3 -35.5Q1083.5 -27.700000000000003 1084.3 -27.900000000000002Q1084.7 -28.1 1085.7 -31.0Q1086.7 -33.9 1086.7 -35.1Q1086.7 -36.1 1087.25 -38.05Q1087.8 -40.0 1088.2 -41.0Q1088.7 -41.7 1088.0 -41.900000000000006Z"/><path fill="#2864df" d="M1149.5 -27.10000000000001Q1153.6 -27.10000000000001 1156.6 -23.85000000000001Q1159.6 -20.60000000000001 1159.6 -16.0Q1159.6 -12.100000000000009 1156.9 -7.300000000000004Q1155.5 -4.800000000000004 1152.65 -3.150000000000002Q1149.8 -1.5 1146.1 -1.5Q1140.2 -1.5 1137.25 -5.900000000000002Q1134.3 -10.300000000000004 1134.3 -14.5Q1134.3 -22.200000000000003 1143.7 -25.900000000000006V-26.0Q1143.7 -27.10000000000001 1149.5 -27.10000000000001ZM1145.8 -20.60000000000001Q1144.1 -20.60000000000001 1142.4499999999998 -18.900000000000006Q1140.8 -17.200000000000003 1140.8 -14.700000000000003Q1140.8 -9.200000000000003 1145.9 -9.200000000000003Q1149.0 -9.200000000000003 1150.8 -11.100000000000001Q1152.6 -13.0 1152.6 -15.5Q1152.6 -17.0 1152.0 -17.6Q1151.4 -18.200000000000003 1151.0500000000002 -18.5Q1150.7 -18.799999999999997 1149.9 -19.15Q1149.1 -19.5 1148.7 -19.60000000000001Q1146.9 -20.299999999999997 1145.8 -20.60000000000001Z"/></svg>
